<?xml version="1.0" encoding="utf-8"?>
<!-- Generator: Adobe Illustrator 25.2.1, SVG Export Plug-In . SVG Version: 6.00 Build 0)  -->
<svg version="1.1" id="Capa_1" xmlns="http://www.w3.org/2000/svg" xmlns:xlink="http://www.w3.org/1999/xlink" x="0px" y="0px"
	 viewBox="0 0 933.4 907.6" style="enable-background:new 0 0 933.4 907.6;" xml:space="preserve">
<style type="text/css">
	.st0{fill:#63B22F;}
	.st1{fill:#D2DA48;}
	.st2{fill:#274C26;}
	.st3{fill:#FFFFFF;}
	.st4{fill:#FAFAFA;}
	.st5{fill:#DEDF42;}
	.st6{fill:#E52622;}
	.st7{fill:#63B22F;stroke:#000000;stroke-width:9;stroke-miterlimit:10;}
</style>
<g>
	<path class="st0" d="M587.2,369.1c6.3-3.8,12.5-7.6,18.8-11.4c0.3,0.4,0.7,0.8,1,1.2c-5,4.9-10,9.8-15,14.8c3.8-1.3,8-3.2,12.5-6
		c13.1-8.4,19.7-20.1,22.6-26.5c12.5,21.6,15.8,39.6,16.3,52.2c1.1,23.2-6.5,33.6-3.5,62.8c1.3,12.6,3,13.6,7.1,33.8
		c5.6,27.8,5.5,41.7,8,65.2c2.5,22.7,5.7,52,16.4,84.9c9.6,29.5,18.6,56.1,43.4,75.9c6,4.8,23,18.1,46.9,19.9
		c5.1,0.4,12.5,0.9,21.2-1.9c5.1-1.7,18.3-6.9,30.9-27c15.7-25,11.9-43.4,18-65.6c5.1-18.5,18.2-43.8,55.3-69.4
		c16.5-4.3,21-3.3,21.9-1.5c2.1,4.2-15.2,13-25.3,34.7c-1.3,2.8-2.2,8-5.8,18.7c-8.5,24.9-6,50.3-4.6,75.9c1,17.9,0.2,35.9,0.2,52.7
		c-1.5-2.5-3.8-6.4-6.1-10.2c-0.9,0.4-1.8,0.9-2.7,1.3c5.1,10.4,9.1,21,4.8,33.3c-0.5-1.8-0.9-3.3-1.7-6.2
		c-8.2,13.6-4.2,31.6-16.9,42c1.9-5.7,4.2-11.3,5.6-17.1c1.3-5.5,3.1-11.4-2.3-17c-0.7,5.8-1.3,10.9-1.9,16c-0.4,0-0.8,0-1.2,0
		c-0.5-1.4-0.9-2.9-2.2-6.7c-3.1,8.9-5.4,15.8-7.8,22.7c0.7,0.3,1.4,0.6,2.1,0.9c0.8-1.3,1.5-2.6,2.6-4.5
		c2.3,13.7-10.4,24.5-25.2,28.9c1.5-9.6,3.2-20,4.8-30.4c0.1-0.8,0.2-1.8-0.1-2.4c-6-10.2,0.4-14.9,7.6-19.7
		c14.9-10,22.8-24.8,25.1-43c3.3-26.9,5.7-54,9.5-80.9c2.3-16.1,6.7-31.8,10-47.7c0.5-2.4,0.6-5,0.9-7.5c-3.4,6.5-8.4,17-12.4,30.4
		c-6.9,23.1-4.8,34.4-9.7,74.4c-4.4,35.9-8.4,43.2-11.6,48.8c-8.3,14.6-20.9,22.9-35.5,28.6c-25.9,10-52.2,8.4-78.4,1.6
		c-2.7-0.7-5.4-1.1-10-2c7.6,12.4,20.3,9.4,29.1,15.4c-2,19.4-6.9,36.9-23.9,47.9c-1.5,1-3.1,2.5-4.7,2.5
		c-11.4,0.2-22.8,0.1-34.5-1.1c19.1-14.9,26.6-35.5,31.7-57.8c1.4-6,0-9.9-5.8-10.9c7.8,13.8-4.8,22.9-7,35.6
		c-1.5-1.9-2.2-2.8-3.3-4.3c-1.8,2.8-3.4,5.4-5,7.9c-0.3-0.1-0.7-0.3-1-0.4c1.5-4.3,3-8.5,4.5-12.8c-0.6-0.3-1.1-0.7-1.7-1
		c-1.8,2.3-3.5,4.6-6,7.9c5.6-20.3,11.3-39.6,6.8-59.7c-1-0.2-2.1-0.4-3.1-0.5c-2.3,8.2-5.1,16.4-6.8,24.8
		c-4.4,20.8-13.8,39.1-25,56.5c-3.4,5.3-7.9,10.3-9.8,16.2c-2.3,6.8-6.2,6.9-11.7,7.2c-17.4,0.9-34.9,2.4-52.3,3.7
		c-4.3,0.3-8.6,0.7-13.2,1.1c2.5-2,4.6-3.7,6.9-5.5c-6.3-7-12.6-6.9-24.7-0.5c-11.9,6.4-11.9,6.4-20,3.9c1.2-8.8,15.1-5.3,14.3-16.6
		c4.9-0.3,9.9-0.6,17.6-1.1c-3.4-3.9-5-6.8-7.4-8.5c-23.6-16.2-30.7-40-29.9-68c1-35.7,18.1-62.6,41.2-86.5
		c3.9-4.1,8.8-7.2,12.8-11.2c2.3-2.4,3.5-5.8,5.2-8.8c-3.4-0.9-7.5-3.5-10.2-2.3c-6.9,3-13.2,7.5-20.8,12.1
		c-3.1-22.4-6.1-44.8-9.2-67.3c-2.2-16.5-4.5-32.9-6.3-49.4c-0.3-2.4,1.1-5.8,2.8-7.5c9.3-9.1,18.9-17.8,28.3-26.8
		c1.4-1.4,2.9-3.5,3-5.4c0.2-2.6-0.8-5.4-1.3-8.1c-2.2,0.9-4.8,1.3-6.5,2.8c-13.1,12.5-26.7,24.2-43,31.7
		c-25.8,11.9-52.4,14.3-80.2,7.7c-24.4-5.9-44.1-18.6-60.3-38.1c-0.8-1-1.3-2.2-2.3-3.8c2.1-0.6,3.8-0.6,5.2-1.5
		c4.3-2.6,4.5-7.1-0.1-9c-6.6-2.8-13.6-4.6-20.5-6.4c-1.2-0.3-3.4,1-4.3,2.2c-7.1,8.8-17.2,11-27.1,13.3c-4.9,1.2-6.9-2-6.6-7.1
		c0.9-13,8.5-21,18.1-27.8c2-1.4,3.9-3.2,7.3-6c-18.7-6.1-27.8,4.7-36.9,16.5c0.4-14.2,11.2-24.5,25.6-25.5
		c13-0.9,24.9,2.9,35.9,9.7c11.9,7.3,22.9,16.5,35.1,23.3c23.4,13.1,48,15.1,73.3,5.6c20.1-7.6,34.3-22.6,47-39.6
		c2.3-3.1,5.4-5.6,7.6-8.8c1-1.4,0.7-3.8,1-5.8c-1.8-0.1-4-0.9-5.4-0.1c-3.5,1.9-6.7,4.6-9.8,6.9c-5-14-10-27.6-15-41.6
		c2.6-1.8,7.2-4.9,12.2-8.3c-1.7-1.4-2.3-2.1-2.4-2c-25.5,13.7-53.4,7.9-80.2,10.7c-5.8,0.6-11.6,0.1-17.5-1.7
		c-1.5-5-2.9-10-4.4-14.9C479.6,382.1,533.4,375.6,587.2,369.1z M633.9,737.6c-6.3,5.6-5.8,11.7-2.5,17.6c6.2,10.9,19.7,12,30.6,2.1
		c2.7-2.4,5.3-7.5,4.7-10.6c-0.7-3.6-5.1-6.3-7.2-8.7c0,5.2,1.3,10-0.3,13.3c-3.7,7.4-11.4,7.4-17.7,5.4
		C633.2,754.1,633.9,745.6,633.9,737.6z M825.3,728.2c-5.6,0-13.1,9-13.6,16.3c-0.5,6.7,2.3,9.9,8,7.4c4.7-2,9.5-5.6,12.3-9.9
		C836.2,735.6,832,728.1,825.3,728.2z M635.9,610.2c-0.8-0.4-1.5-0.8-2.3-1.2c-1.4,2.4-3.8,4.7-4,7.2c-0.9,12.4,3.1,23.6,8.9,34.2
		c1.2,2.1,2,4.4,3.1,6.6c1.4-0.9,2.8-1.8,4.2-2.7C643.8,639.4,631.4,626.6,635.9,610.2z M627.5,539.5c-8.6,9.2-3.5,36,9.3,43.2
		C633.7,568,630.6,553.9,627.5,539.5z M622.6,440.4c0.7-0.1,1.4-0.3,2.1-0.4c3.6-11.3,0.8-22.3-8.5-28.8
		C618.6,421.8,620.6,431.1,622.6,440.4z M642.3,560.5c2.3-13.5-0.1-21-7.7-23.1C633.6,547.3,637.5,558.8,642.3,560.5z M615.1,434.4
		c-6,8.6-3.6,20.5,5.5,25.2C618.9,451.8,617.2,444,615.1,434.4z M645.8,634.7c6.5-7,4.2-16.6-4.6-21.4
		C642.8,620.8,644.1,626.9,645.8,634.7z M622.2,498.3c-0.9,0.5-1.8,0.9-2.8,1.4c1.5,4.6,2.9,9.2,4.7,13.7c0.1,0.3,4.8-0.8,4.8-1.3
		C629.1,506.2,627.6,501,622.2,498.3z M607.7,734.2c7.2,8.3,12,8.2,15.2,0.7C618.2,734.7,614,734.5,607.7,734.2z M659.4,657
		c1.3-0.5,2.5-1.1,3.8-1.6c-2.1-5.1-4.2-10.2-6.2-15.3c-1.1,0.5-2.2,0.9-3.3,1.4C655.6,646.7,657.5,651.8,659.4,657z M746.3,752.7
		c3.7,4.5,6.2,7.6,8.7,10.7c0.9-1.1,2.8-2.5,2.6-3.2C756.3,755.7,754.4,751.7,746.3,752.7z M654,656.8c-0.7,0.5-1.4,1.1-2.1,1.6
		c-0.3,6.2,2.9,9.4,7.8,11.2c0.6-0.5,1.3-1,1.9-1.6C659.1,664.2,656.6,660.5,654,656.8z M865.7,762.7c3.6-7.4,1.9-11.8-5.9-15.5
		C861.8,752.4,863.7,757.3,865.7,762.7z"/>
	<g>
		<path d="M422.5,879.6c4.8-0.7,9.7-1.9,14.5-1.9c32.1,0.4,64.3,1.1,96.4,1.5c38.1,0.5,76.1,0.8,114.2,1.1c2,0,4,0.2,6,0.3
			c0.1,0.7,0.1,1.3,0.2,2c-7.7,0.7-15.4,2-23.2,2c-40.1-0.1-80.3-0.3-120.4-0.8c-28-0.4-56-1.3-84-2c-1.2,0-2.3-0.2-3.5-0.3
			C422.7,880.9,422.6,880.3,422.5,879.6z"/>
		<path d="M869.3,870.1c-12.3,0-24.7,0-37,0c0-0.7,0-1.3,0-2c12.3,0,24.6,0,36.8,0C869.2,868.8,869.3,869.5,869.3,870.1z"/>
		<path d="M870.7,864.4c-9.3,0-18.7,0-28,0c0-0.6,0-1.3,0-1.9c9.3,0,18.7,0,28,0C870.7,863.1,870.7,863.8,870.7,864.4z"/>
		<path d="M304.1,873.8c-6.6-0.4-13.2-0.8-19.7-1.2c0-0.7,0.1-1.4,0.1-2.1c6.7,0,13.4,0,20.1,0C304.4,871.6,304.3,872.7,304.1,873.8
			z"/>
		<path class="st1" d="M471.5,584.2c7.7-5.4,15.4-10.7,23.1-16.1c0.5,0.7,0.9,1.4,1.4,2c-3.4,2.8-6.7,5.7-10.1,8.5
			c0.4,0.7,0.9,1.5,1.3,2.2c8-5.2,16-10.4,24-15.6c0.3,0.5,0.7,1,1,1.5c-2.6,2.6-5.2,5.2-7.8,7.8c0.4,0.6,0.8,1.2,1.2,1.8
			c5-3.5,10.1-7,16.4-11.3c-1.4,3-2.2,4.6-3,6.2c0.5,0.6,1.1,1.1,1.6,1.7c5.8-6,11.6-12,17.8-18.5c1.5,8.9,3.2,17.5,4.3,26.1
			c4,31.7,7.8,63.5,11.4,95.3c0.3,3-0.3,7.2-2.2,9.2c-15.3,17-23.7,37.8-30.2,59.7c-1,3.3-0.9,7-2.2,10.2c-0.7,1.7-3.1,3.1-5,3.8
			c-4.3,1.6-8.8,2.7-13.2,4c0.2,0.9,0.4,1.8,0.6,2.7c5.3-0.8,10.7-1.5,16-2.3c0.4,0.7,0.8,1.4,1.3,2.1c-2,1.4-4,2.8-6,4
			c-2.5,1.6-5.1,3.1-7.6,4.6c0.2,0.7,0.5,1.5,0.7,2.2c3.6-0.9,7.3-1.7,12.1-2.9c0.5,8.4-8.6,5.8-11.8,11c4.9-0.7,8.7-1.3,14-2.1
			c-2.9,9.1-12.5,6.3-17.1,14.6c6.6-1.7,11.6-3,17.1-4.5c0.7,1.5,1.6,3.6,3,6.8c-26.6,3.8-52.6,4.2-78.6,1.9
			c-0.1,0.8-0.2,1.6-0.4,2.4c6.8,1.5,13.6,4.2,20.4,4.1c18.2-0.3,36.3-1.9,54.5-2.8c2.1-0.1,5.3,0.1,6.2,1.5
			c4.6,7.5,8.7,15.4,13.4,23.9c-6,0-11.9,0.6-17.6-0.1c-28.3-3.3-56.2-8.7-81.8-22.5c-31.4-17-56.3-41.7-70.2-75.9
			c-6.9-16.9-9.7-36.1-11.6-54.6c-2.8-27.5,2.2-54.7,8.3-81.5c5.3-23.4,10.4-46.8,16-72c3.7,4.1,6,6.6,8.3,9.2
			c-1.4,0.7-2.6,1.3-3.8,2c16.6,10.3,32.8,20.4,49.4,30.6c0,0.1-0.9,1.5-1.7,2.8c4.4-0.8,8.6-1.5,12.9-2.2c0.2,0.7,0.5,1.4,0.7,2
			c-2.6,1.6-5.2,3.2-7.7,4.7c0.2,0.7,0.5,1.5,0.7,2.2c7.7-1.8,15.4-3.6,23.1-5.4c0.2,0.4,0.4,0.9,0.7,1.3c-4.3,3.2-8.5,6.5-12.8,9.7
			c0.4,0.8,0.7,1.6,1.1,2.4c8.3-4.2,16.7-8.5,25-12.7c0.2,0.5,0.3,0.9,0.5,1.4c-3.2,4.1-6.5,8.3-9.7,12.4c-16.7,0.3-33.3,0.6-50,0.8
			c-14.2,0.1-28.3,0-43.1,0c4.8,1.3,9.3,3.1,13.9,3.8c36.8,5.7,73.7,5.3,110.3-1.4c12.2-2.2,24.6-5.2,33.7-14.5
			C513.1,576.3,492.3,580.3,471.5,584.2z M545.3,665.7c-59.6,15-119.5,13.2-181.2,2.4C390.6,688.1,505.8,691.3,545.3,665.7z
			 M518.2,748.7c-47.3,8.5-92.3,6.6-138.2-8.8C399.8,765.3,506.1,765.4,518.2,748.7z M421.3,784.8c7.6,7.4,27.6,10.7,36.2,4.6
			C444.4,787.7,433.2,786.3,421.3,784.8z M405.3,767.8c8.9,8.8,13,9.6,15.9,4.4C415.8,770.8,410.5,769.3,405.3,767.8z M394.4,652.1
			c-3.3-2.9-4.6-5-5.9-5c-2.1,0.1-4,1.7-6,2.7c1.2,1.3,2.3,3.4,3.8,3.7C388,654.1,390.1,653,394.4,652.1z"/>
		<path class="st1" d="M506.4,412.3c-25,12.6-51.8,10.3-78.2,11c-0.3-0.7-0.6-1.4-0.8-2.1c2-0.9,3.9-2.4,6-2.5
			c14.5-1.3,29.2-1.9,43.6-3.7c7.8-1,15.4-3.8,22.9-6.3c4.8-1.6,7.8-1,10.9,3.6c7.7,11.2,10.6,24.2,13.4,37.2
			c0.4,1.8-0.9,4.7-2.4,6.1c-18.5,18-39.2,31.3-65.6,29c-18-1.6-34.7-7.8-49-19.3c0-1.3-0.1-1.8,0-2.3c3.3-12.6,10.4-18.3,23.4-15.5
			c6.2,1.3,12.8,0.1,19.2-0.2c2.4-0.1,4.7-1,6.8-3.1c-13.3,0-26.5,0-40.9,0c3-6.1,5.3-11.4,8.3-16.2c1.1-1.7,4.1-3.1,6.1-2.8
			c21.6,2.9,43,1.6,64.1-3.9c4.5-1.2,8.4-4.6,12.6-7.1C506.8,413.6,506.6,412.9,506.4,412.3z"/>
		<path class="st0" d="M258.2,477.9c-4.4-3.8-7.2-1.7-9.8,1.8c-7.4,9.9-8.8,14.7-11,39.7c-2.9-3.1-5.4-4.8-6.4-7.2
			c-5.2-12.7,0.4-23,9-30.7c15-13.5,32.4-21.1,52.8-18c8.7,1.3,13.5,6.7,13.5,16.1c0,7.8,1.8,13.9,8.8,17.9c1.9,1.1,3,4.7,3.5,7.4
			c2.5,12.3,10.9,18.1,22.5,15.1c7.8-2,15.6-3.9,25.2-6.3c-11.9,11.5-21.8,22.8-37.4,24.8c-13.1,1.7-22.5-9.3-19-22.7
			c3.3-12.7-4.8-26-17.2-28c-16.4-2.5-23.6,1.4-31.4,17c-3.1,6.3-3.8,6.6-11.3,5.2C248.2,498.3,253.6,488.4,258.2,477.9z"/>
		<path class="st0" d="M379.4,838.6c6.7-0.7,12.8-1.1,18.9-2.1c2-0.3,4.9-1.4,5.6-2.9c0.6-1.4-1.2-4-2.1-6.1c-0.2-0.4-0.8-0.6-1.2-1
			c-13.1-14.2-13.4-14.8-14.6-36.9c21.2,21.4,45.7,35.4,73.5,45c-2.2,5.1-4.1,9.9-6.5,14.5c-0.6,1.2-2.9,1.9-4.4,1.9
			c-26.2,0.1-52.4,0.1-78.3,0.1c1.3-0.7,3.3-2.5,5.5-2.9C381.6,847.1,384,844.7,379.4,838.6z"/>
		<path class="st0" d="M349.9,586.1c-32.8,5.5-54-15.7-64.8-38.5c-0.7-1.6,0.5-5.7,2-6.7c5.8-3.9,10.7-6.7,16.6,2.3
			c8.3,12.8,27.2,14.8,42.8,6.7c5.2-2.7,10.1-5.9,15.5-9.1C357.9,556.2,353.8,571.4,349.9,586.1z"/>
		<path class="st2" d="M697.3,670.2c-7.7-26.8-15.4-53.6-23.1-80.4c0.9-0.6,1.7-1.2,2.6-1.7c11,4.6,22.1,8.9,33,13.9
			c2.1,0.9,4.3,4.3,4.4,6.6c1.5,21.7-4.3,41.7-13.7,60.7C699.5,669.6,698.4,669.9,697.3,670.2z"/>
		<path class="st1" d="M786.5,801.9c11.8-3,22.5-5.7,34.3-8.7c2.1,15-0.7,29-9,41.7c-9.2,14.2-24.9,10.7-38,15
			C785.8,836.1,788.7,819.7,786.5,801.9z"/>
		<path class="st1" d="M733.9,852.1c14.7-13.5,19.6-30.7,18.8-50.4c10.5,0,20.3,0,30.8,0c2.5,15.2-3.7,27.8-11.4,40
			C762.6,856.9,747.3,849.8,733.9,852.1z"/>
		<path class="st3" d="M646.4,376.5c0.7-22.8-4.9-44.6,2.9-67.5c5.9,3.5,12.5,5.8,16.8,10.5c3.2,3.4,5.5,10.3,4.6,14.8
			c-3.1,15.2-8.7,29.6-20.7,40C649.3,375,648.3,375.4,646.4,376.5z"/>
		<path class="st2" d="M670,552.9c-3.5-23.4-6.9-46.9-10.7-72.1c8.8,5.1,16.9,9.3,24.5,14.4c6.1,4.1,7.5,10.3,4.6,17.5
			c-5.5,13.6-10.7,27.4-16,41.1C671.5,553.5,670.7,553.2,670,552.9z"/>
		<path d="M471.5,584.2c20.8-4,41.6-7.9,62.2-11.9c-9.1,9.3-21.5,12.2-33.7,14.5c-36.6,6.7-73.5,7.1-110.3,1.4
			c-4.6-0.7-9.1-2.4-13.9-3.8c14.8,0,28.9,0.1,43.1,0c16.7-0.2,33.3-0.5,50-0.8C469.7,583.9,470.6,584,471.5,584.2z"/>
		<path class="st2" d="M772.8,727.3c-4.6-0.4-7.3-0.3-9.7-0.9c-3.4-0.9-6.7-2.4-10.1-3.6c2.5-4.7,4.3-10.3,7.8-13.9
			c2.2-2.3,7.1-2.2,10.8-2.4c1.4-0.1,3.3,1.6,4.3,3.1c2.8,4,5.2,8.3,7.8,12.5C779.7,724.1,775.5,726.1,772.8,727.3z"/>
		<path class="st2" d="M654.2,444.6c-1.8-13.8-3.5-26.4-5.2-38.8C667.5,414.4,670.4,428.2,654.2,444.6z"/>
		<path class="st0" d="M274.6,526c0.6-5.9,1.1-10.3,1.7-15.5c2.5,1.2,4.4,2.1,6.4,3c0.4-0.3,0.8-0.6,1.1-0.9c-1.5-2-3-4-5.9-8
			c4.1-0.9,7.5-2.5,10.8-2.1c2,0.2,5.6,4,5.3,5.2c-1.3,4.5-3,9.6-6.2,12.7C284.9,523.3,280,523.9,274.6,526z"/>
		<path class="st2" d="M854.7,582c-5.2,4.5-10.5,9-13.6,11.7C842.2,580.1,847.3,574.3,854.7,582z"/>
		<path class="st3" d="M675.7,846.7c7.4-6.2,14.8-12.5,23.6-19.9C693.5,837.8,685.7,843.6,675.7,846.7z"/>
		<path class="st2" d="M825.8,628.1c-2.7,8.1-5.1,14.9-7.8,22.8C817.6,642,815.7,633.7,825.8,628.1z"/>
		<path d="M633.9,737.6c0.1,8-0.6,16.5,7.6,19.1c6.3,2,14,2,17.7-5.4c1.6-3.2,0.3-8.1,0.3-13.3c2.1,2.4,6.5,5.2,7.2,8.7
			c0.6,3.1-2.1,8.1-4.7,10.6c-10.9,9.9-24.4,8.9-30.6-2.1C628,749.3,627.6,743.2,633.9,737.6z"/>
		<path d="M825.3,728.2c6.7,0,10.9,7.4,6.6,13.8c-2.8,4.3-7.6,7.9-12.3,9.9c-5.7,2.5-8.5-0.7-8-7.4
			C812.2,737.1,819.7,728.2,825.3,728.2z M817.7,744.5c0.7,0.7,1.3,1.5,2,2.2c3.3-3.3,6.7-6.6,10-9.9c-0.7-0.8-1.4-1.5-2.1-2.3
			C820.8,733.7,819.1,738.9,817.7,744.5z"/>
		<path d="M635.9,610.2c-4.5,16.4,7.9,29.2,9.8,44.2c-1.4,0.9-2.8,1.8-4.2,2.7c-1-2.2-1.9-4.5-3.1-6.6c-5.8-10.6-9.8-21.8-8.9-34.2
			c0.2-2.5,2.6-4.8,4-7.2C634.4,609.4,635.2,609.8,635.9,610.2z"/>
		<path d="M627.5,539.5c3.1,14.3,6.1,28.4,9.3,43.2C624,575.6,618.9,548.7,627.5,539.5z"/>
		<path d="M622.6,440.4c-2-9.3-4-18.6-6.4-29.2c9.3,6.5,12,17.5,8.5,28.8C624,440.1,623.3,440.3,622.6,440.4z"/>
		<path d="M642.3,560.5c-4.9-1.7-8.7-13.2-7.7-23.1C642.2,539.5,644.7,547,642.3,560.5z"/>
		<path d="M615.1,434.4c2.1,9.6,3.8,17.4,5.5,25.2C611.6,454.9,609.1,443,615.1,434.4z"/>
		<path d="M645.8,634.7c-1.7-7.8-3-14-4.6-21.4C650,618.2,652.3,627.7,645.8,634.7z"/>
		<path d="M622.2,498.3c5.4,2.7,6.9,7.8,6.7,13.8c0,0.5-4.7,1.5-4.8,1.3c-1.8-4.5-3.2-9.1-4.7-13.7
			C620.4,499.3,621.3,498.8,622.2,498.3z"/>
		<path d="M607.7,734.2c6.2,0.3,10.5,0.5,15.2,0.7C619.7,742.4,614.9,742.5,607.7,734.2z"/>
		<path d="M659.4,657c-1.9-5.2-3.9-10.3-5.8-15.5c1.1-0.5,2.2-0.9,3.3-1.4c2.1,5.1,4.2,10.2,6.2,15.3
			C661.9,655.9,660.7,656.5,659.4,657z"/>
		<path d="M746.3,752.7c8.1-0.9,10.1,3.1,11.3,7.5c0.2,0.7-1.7,2.1-2.6,3.2C752.5,760.3,749.9,757.2,746.3,752.7z"/>
		<path d="M654,656.8c2.6,3.7,5.1,7.5,7.7,11.2c-0.6,0.5-1.3,1-1.9,1.6c-4.9-1.8-8.1-5-7.8-11.2C652.6,657.8,653.3,657.3,654,656.8z
			"/>
		<path d="M865.7,762.7c-2-5.3-3.9-10.2-5.9-15.5C867.6,750.9,869.4,755.3,865.7,762.7z"/>
		<path d="M545.3,665.7c-39.4,25.6-154.6,22.4-181.2,2.4C425.7,678.9,485.6,680.7,545.3,665.7z"/>
		<path d="M518.2,748.7c-12.1,16.7-118.5,16.6-138.2-8.8C425.9,755.3,470.9,757.1,518.2,748.7z"/>
		<path d="M421.3,784.8c11.9,1.5,23.1,2.9,36.2,4.6C448.9,795.4,428.9,792.2,421.3,784.8z"/>
		<path d="M405.3,767.8c5.2,1.5,10.5,2.9,15.9,4.4C418.3,777.4,414.2,776.6,405.3,767.8z"/>
		<path d="M394.4,652.1c-4.3,0.9-6.4,1.9-8.1,1.5c-1.5-0.4-2.5-2.4-3.8-3.7c2-1,4-2.6,6-2.7C389.8,647.1,391.1,649.2,394.4,652.1z"
			/>
		<path class="st3" d="M817.7,744.5c1.3-5.6,3.1-10.8,9.9-10c0.7,0.8,1.4,1.5,2.1,2.3c-3.3,3.3-6.7,6.6-10,9.9
			C819,746,818.4,745.2,817.7,744.5z"/>
		<path class="st0" d="M425.3,387.6c6,0,12,0.1,18,0.1c6.1,0.2,14.7,0.3,25.1-0.3c18.7-1.1,32.8-4,45.2-6.5
			c10.3-2.1,20.5-4.2,33.7-8.2c34.3-10.5,57.2-24.5,62.6-27.8c7.5-4.6,14.8-9.6,21.9-15.1c10.3-7.9,20.3-16.1,30.4-24.2
			c0,0-0.1,0,0,0c-0.7,7.5-3.9,14-9.9,18.1c-6.2,4.3-10.8,7.4-16.1,10.9c-14.3,9.4-22.3,12.6-29.8,19c-9.6,8.1-15.1,15.8-22.6,17.8
			c-0.8,0.2-5.1,1.3-10.9,3.2c-2.9,0.9-4.8,1.7-5.6,1.9c-5.7,1.6-11,2-25.9,5c-8.3,1.7-14.4,3.1-19.2,4.4c-14.7,3.9-24.9,6-26.5,6.4
			C484.2,395,464.1,395.9,425.3,387.6z"/>
		<path class="st2" d="M631.6,113.6c-0.7-1.6-1.3-3.3-1.8-4.5c-1.4,0-3.3,0-5.2,0c0.6-2.4,1.2-4.8,1.9-7.5c-2.7,1.3-4.3,8.4-9.2,2.4
			c1.6-2.4,3.2-5,4.8-7.6c-0.2-0.2-0.5-0.4-0.7-0.6c-1.5,1.8-2.9,3.8-4.6,5.4c-1,0.9-2.7,1.1-4.1,1.6c0-1.4-0.2-2.9,0.2-4.1
			c0.6-1.7,1.7-3.2,2.8-5.1c-4.6,0.6-3.8,9-10.6,6.1c1.5-3,2.9-5.7,4.2-8.4c-0.2-0.2-0.3-0.3-0.5-0.5c-1.2,1.5-2.7,2.9-3.6,4.6
			c-2.2,4.1-5.1,4.7-9.4,2c1.4-2.5,2.9-5,4.3-7.5c-0.2-0.2-0.5-0.4-0.7-0.6c-1.5,2-2.8,4.1-4.5,5.8c-1.2,1.2-3,1.8-4.5,2.7
			c-1.1-2.5-2.4-4.9-3.1-7.5c-0.2-0.7,1.5-2.5,2.6-2.7c13.5-3.4,26.4-2.5,37.9,6c5.1,3.8,6.7,10.5,5.4,19.2
			C632.7,113,632.1,113.3,631.6,113.6z"/>
		<path class="st2" d="M687.5,189.2c-3.8-7.4,4.9-9.5,6.3-15.4c-3.2,2.8-5.9,5.1-8.6,7.6c-3.8-4.5,0.7-5.2,2.5-7
			c2.1-2,4.4-3.9,6.6-5.9c-0.3-0.4-0.6-0.8-0.9-1.2c-3.6,2.5-7.1,5-10.8,7.7c-2.6-2.9-3.6-5.2,0.4-7.7c1.9-1.2,3.3-3.1,4.3-5.6
			c-2.7,1.9-5.5,3.7-8.2,5.5c-4.3-5-4.3-5,1.9-12.3c-2.1,1.4-4.1,2.9-7.3,5.1c-0.8-3.1-1.5-5.6-2.1-7.9c-5,2.3-3.7-4.9-7.6-6.3
			c11.7-2.1,27.1,5.6,31.5,15.2C699.7,170,696.6,181.3,687.5,189.2z"/>
		<path class="st0" d="M651.8,326.4c-5,9.7-11.5,16.3-19.3,21.7c-26.7,18.4-56,31.1-87.7,37.8c-0.6,0.1-1.2,0-1.9-0.4
			C582.9,373.5,618.3,353.1,651.8,326.4z"/>
		<path class="st3" d="M155.7,296.6c-1.9,8.1-4.2,14.9-9.2,20.4c-3.2,3.5-5.5,3.4-7.8-0.6c-2.9-5.1-5.2-10.6-7.8-16.1
			C139.5,299,147.2,297.9,155.7,296.6z"/>
		<path class="st3" d="M269.2,320.3c-1-4.8-1.9-9.5-3-14.9c5.8,0,10.8,0,17.5,0c-4.4,5.7-8.3,10.7-12.1,15.6
			C270.8,320.8,270,320.6,269.2,320.3z"/>
		<path class="st3" d="M485.9,318.4c-1.4,5.4-2.2,11-7.1,11.9c-4.3,0.7-6.1-4.4-8.9-8.2C475.5,320.8,480.2,319.7,485.9,318.4z"/>
		<path class="st2" d="M635.5,370.5c8.5-5.9,17-11.7,25.5-17.6C654.6,361.6,646,367.5,635.5,370.5z"/>
		<path class="st2" d="M690.9,288.4c1.2-4.6,2.1-9.2,3.6-13.6c0.5-1.5,2.6-2.5,4-3.7c0.6,0.4,1.1,0.9,1.7,1.3
			c-2.6,5.6-5.3,11.1-7.9,16.7C691.8,288.9,691.4,288.7,690.9,288.4z"/>
		<g>
			<path class="st0" d="M675.5,232.1c0.2,8.4-0.2,16.9,0.6,25.2c1.4,13.7-8,19.3-17.1,26.2c-27.9,21.2-57.5,39.6-89.5,54.2
				c-2.4,1.1-4.7,2.5-6.8,4.1c40.4-15,76-38,109-65.7c1.6,6.3-0.8,11.2-5.8,14.7c-9.2,6.3-18.2,12.8-27,19.6
				c-28.3,21.9-59.9,37.7-93,50.6c-4,1.6-7.9,3.5-11.7,5.5c50.4-14.3,93.6-41.7,133.9-74.6c-0.6,5.3-1.8,10.2-6,13.7
				c0,0,0.1,0,0.1,0c-7.6,5.1-15.5,9.7-22.6,15.3c-37.7,29.5-79.9,48.7-126.8,58c-30.3,6-60.9,7.6-91.7,6.4c24-3.3,47.9-6.7,71.9-10
				c0-0.2-0.1-0.4-0.1-0.7c-10.9,0.8-21.9,2-32.8,2.3c-15.1,0.4-30.3,0.1-45.4,0.1c0-0.5,0-0.9-0.1-1.4c17-2.4,34.1-4.9,51.1-7.3
				c0-0.4-0.1-0.7-0.1-1.1c-8.3,0.7-16.6,1.2-24.8,2.2c-8.3,1-16.4,2.9-24.7,3.5c-8.4,0.6-16.8,0.1-25.2-0.8
				c13.8-2.6,27.6-5.1,41.4-7.7c-0.1-0.5-0.1-0.9-0.2-1.4c-22.8,0.4-45.7,3.6-69.7,0.9c4.7-2.8,8.4-5,12.1-7.2
				c-0.1-0.3-0.2-0.7-0.3-1c-1.9,0-3.8-0.2-5.7,0c-25.5,2.6-50.9,5.6-76.5,7.8c-54.1,4.7-108.1,5.4-161.5-6.4
				c-13.5-3-26.1-7.8-37.3-16.1c-14.4-10.7-19.3-27.4-12.9-42.9c1.3-3.2,2.6-4.2,6.6-3.3c10.8,2.4,21.9,4,32.9,5.3
				c3.4,0.4,4.6,1.5,5.7,4.7c2,5.9,4.1,12.1,7.4,17.3c5.7,8.8,14.1,9.1,21.2,1.3c6.4-7,9.4-15.7,10.5-24.9c0.4-3.1,1.8-4.1,4.4-5.6
				c9.3-5.3,18.4-11.3,27.4-17.1c2.5-1.6,4.6-3.7,8.1-6.5c1.2,1.8,2.2,3.5,3.5,5c12.6,15.3,27.4,27.1,47.7,30.6
				c1.2,0.2,2.4,2.6,2.9,4.2c1.4,5.4,1.8,11.2,3.9,16.3c3,7.1,9.2,8.2,15.6,3.8c7.6-5.3,11.3-13.3,14.9-21.4c0.8-1.7,2.6-3.6,4.2-4
				c9.4-2.2,17.9-6.1,25.8-12.4c0.8,1.2,1.6,2.2,2.3,3.2c9.8,17.1,24.5,27.3,43.8,30.6c3.5,0.6,5.6,1.9,6.8,5.4
				c0.9,2.8,2.4,5.6,4.1,7.9c4.9,6.4,12.3,6.3,17.3,0c0.3-0.4,0.7-0.8,0.9-1.2c2.1-8.9,9-11.1,16.8-11.9c1.1-0.1,2.3-0.5,3.4-0.9
				c5.5-1.9,17.9-2.4,24-1.6c5.1,0.7,10.3,1,15.4,0.9c3.1,0,4.8,0.6,6.2,3.6c3.3,7.2,8.1,13.5,16.8,12.4c8.7-1.1,12.8-8.1,14.4-16
				c1.1-5.4,3.5-7.5,8.6-8.9c26.8-7.5,46-24.8,59.5-48.5c3.7-6.5,5.5-14.1,8.2-21.2c21.6,5,33.9,2.6,36.4-8.4
				c-18.1,10.6-34.3,5.5-49.1-5.5c-6.6,8.3-13.8,4-22,2.4c5,6.4,10.9,7.7,18.7,7.3c-1.2,4-2,7.7-3.4,11c-9,20.7-24.8,34.2-45.3,42.7
				c-20.1,8.3-40.8,13.5-62.7,11.3c-2.2-0.2-4.2-1.9-6.4-2.5c-1.2-0.4-2.7-0.1-4.4-0.1c-0.4-0.8-0.9-2-1.4-3.1
				c-19.1,13.3-39.5,11.8-60,6c-21.3-6-34.3-20.4-40.4-41.9c-0.6,0.7-1.2,1.4-2,2.2c-0.5-0.7-1-1.4-1.6-2.2c-1,1.1-1.7,2.2-2.7,3.1
				c-25.2,24.3-60,28.6-88.7,7.7c-4-2.9-8-6.1-11.3-9.8c-2.4-2.7-3.6-6.6-5.8-9.6c-0.8-1-2.9-1.1-4.5-1.5c-1.4-0.3-3.9-0.2-4-0.6
				c-1-4.7-4.2-2.5-7-2.3c-0.3-1-0.5-1.9-0.9-3.3c-8,5.7-15.8,11.1-23.3,16.8c-14.4,11-30.6,16.4-48.7,16.7
				c-24,0.3-45.9-6.6-66.6-18.3c-3-1.7-4.7-4-4.5-7.6c0.1-2.4,0-4.7,0-7.1c-0.5,0-1,0-1.5,0c-0.2,3.2-0.3,6.4-0.5,9.9
				c-9.2-4-12.3-11.2-11.3-20.8c-0.5,0-0.9,0.1-1.4,0.1c-0.8,2.2-1.7,4.3-2.7,7.1c-0.3-2-0.6-3.5-0.8-5c-0.3,0-0.7-0.1-1-0.1
				c-0.6,5.2-1.3,10.4-1.9,15.7c-0.2,0.1-0.3,0.1-0.5,0.2c-0.8-4.3-1.7-8.6-2.5-12.9c-0.4,0.1-0.8,0.1-1.2,0.2
				c0.8,6,1.5,11.9,2.2,17.7c-8.7-3.4-14.3-18-12.4-33c1.5-12.1,8.6-26.2,13.8-27c0.2-8.7,1.1-17.3,7.9-23.9
				c4.4-4.3,8.3-4.7,12.5-1.3c-2.8,4.5-5.6,9.1-8.3,13.7c0.4,0.3,0.7,0.5,1.1,0.8c3.5-3.3,7.1-6.6,9.8-9.1c2.4,0.3,3.9,0.9,5.2,0.5
				c7-1.9,13.9-4.2,21-6.2c1.6-0.4,3.4-0.1,5.5-0.1c-2.1,4.1-3.9,7.5-5.7,10.9c0.3,0.2,0.6,0.4,1,0.5c0.8-1.1,1.7-2.3,3.4-4.6
				c-0.6,5.6-1,9.9-1.5,14.3c0.4,0.2,0.7,0.4,1.1,0.6c2.3-3.3,4.4-6.7,6.9-9.7c4.4-5.3,8.8-10.9,13.9-15.6c6.4-5.9,14.6-7.2,23-5.8
				c8.3,1.3,13.4,6.7,16.2,14.5c1.1,3.1,2.7,5.9,4,8.9c0.3-0.6,0.5-1.1,0.8-1.7c2.8,0.1,5.8-0.5,8.3,0.4c21,7.5,42.5,11.8,64.8,12.3
				c23.3,0.5,46.5-1,69.6-4.5c2.2-0.3,4.9,0.7,6.9,1.9c6.6,3.8,13,7.9,19.4,11.9c0.4-0.5,0.7-0.9,1.1-1.4c-5.5-4.6-11-9.3-16.8-14.2
				c7.8-2.9,14.9-5.3,22.8-0.5c6.4,4,13.3,7.2,20,10.7c0.4-0.5,0.7-1,1.1-1.6c-6.7-4.9-13.3-9.8-20.2-14.9
				c9.5-3.2,18.8-6.8,29.1-2.1c6.4,3,13.3,5,20,7.5c0.3-0.5,0.5-1,0.8-1.5c-6.9-3.8-13.9-7.5-21.5-11.7c7.8-2.3,14.5-7.5,23.2-3.3
				c6.7,3.2,13.7,5.7,20.6,8.4c0.3-0.5,0.6-1,0.8-1.5c-6.6-3.7-13.2-7.4-19.9-11.2c3.1-2.5,6.4-4.8,11.4-2.8
				c8.6,3.6,17.3,6.8,26,10.3c1.6,0.6,3.3,1.3,5.1,1.6c-7-7.9-16.3-12-26.3-15.8c3.9-4.1,7.8-4,12.2-2.3c7.2,2.7,14.4,5.1,21.7,7.6
				c0.8,0.3,1.8,0.2,3.8,0.4c-7.6-7.3-16.9-8.9-26.1-12.9c1.9-0.5,3-0.8,3.8-1c-2.7-23.2,1.5-44.6,14.8-63.7
				c3.4-4.8,8.7-8.8,13.9-11.7c7.4-4.1,14.8-1.2,18.3,6.4c1.9,4.2,3.3,8.8,3.9,13.3c1.8,15.3,0,30.3-6.2,44.5
				c-1.8,4.1-4.9,7.8-8.2,12.9c3.4-1.4,5.9-2.4,8.4-3.4c3.6-1.4,5.5-6.4,10.6-5.1c0.6,0.2,2-2.4,3.2-3.9c0.8,0.3,1.7,0.7,3,1.2
				c1.3-3.5,2.5-6.9,4.2-11.7c3.7,17.9,10.1,32.5,27.4,39.9c0.3-1.3,0.6-1.9,0.4-2.2c-11.4-23-9.6-46.6-2.2-70
				c2.4-7.8,6.4-15.5,11.2-22.1c10.4-14.3,25.4-14.6,37.1-1.4c11.4,12.9,16,28.8,17.3,45.4c0.9,10.7,0.3,21.6-0.8,32.3
				c-0.5,5.3-3.7,10.3-5.8,15.6c6.9-2.4,11.2-9,17.5-13.1c0.2,0.5,0.6,1.5,1,2.5c0.6-0.3,1.2-0.5,1.4-0.8c8-12.7,21.2-20.6,30-32.6
				c0.6-0.8,3-1.2,3.7-0.6c3.3,2.5,6.3,5.3,9.3,8c-4.2,3.9-8.6,7.6-12.6,11.7c-4.7,4.8-9,9.9-13.5,14.9c0.3,0.3,0.7,0.7,1,1
				c3-3,6.2-5.7,8.9-8.9c5.5-6.2,10.7-12.6,16-18.9c5,4.3,9.9,8.5,14.9,12.8c-7.8,8.4-14.9,16-22,23.6c0.4,0.4,0.9,0.8,1.3,1.3
				c7-7.4,14.1-14.9,21.8-23c4.7,7.6,9.5,14.8,13.6,22.3c6.6,12.2,10.9,25.2,13.7,38.8c0.7,3.4,0.4,5.5-2.7,8
				c-17.8,13.9-35.3,28.3-52.6,43c4.8-3.1,9.7-6.1,14.3-9.4c4.9-3.5,9.5-7.3,14.1-11.1c4.7-3.7,9.3-7.5,13.9-11.4
				c4.5-3.8,8.8-7.9,13.2-11.8c0.5,0.1,1.1,0.2,1.6,0.3c0,3.8,0,7.7,0,11.5c-3,1.8-6.1,3.4-8.9,5.4c-12.4,9.3-24.6,18.7-36.9,28.1
				c-4.5,3.5-9.1,6.9-13.6,10.3c1.4,0.4,2.2-0.1,2.9-0.6c13.8-10.1,27.7-20.1,41.4-30.3C665.8,241.1,670.5,236.4,675.5,232.1z
				 M140.3,208.3c1.8-2.8,3.6-4.9,4.5-7.4c1-2.6,1.3-5.5,1.4-8.3c0.2-5.3-6.9-10.8-11.4-8.5c-11.9,6.1-21.5,14.5-24.5,28.6
				c1.2,0.4,2.2,0.8,3.4,1.3c-0.5,1.8-0.8,3.2-1.4,5.6c2.9-2.5,4.7-5.4,7.1-5.9c4.2-0.9,8.8-0.2,13.1-0.2c-1.5,0.9-3.4,2-5.7,3.3
				c8.8,0.2,22.1-9.7,24.6-18c2.2-7.3-1.8-17.6-8.3-21.5C152.4,193.1,150.3,201.3,140.3,208.3z M551.2,139.9c-0.5-2.9-0.3-5.8-1.5-8
				c-1.1-2-3.6-4.5-5.6-4.5c-1.9-0.1-5.2,2.4-5.5,4.2c-1.2,5.6-1.9,11.5-1.6,17.1c0.1,2.1,3.4,5.2,5.7,5.6c1.8,0.3,5-2.4,6.1-4.5
				C550.3,146.9,550.5,143.2,551.2,139.9z M673.6,259.6c-28.3,19.9-56.7,39.8-84.3,59.2C619.9,303.7,647.2,282.2,673.6,259.6z
				 M444.3,131.4c0.7,2.9,1.1,5.9,2.4,8.5c0.8,1.7,3.2,3.7,4.7,3.6c1.9-0.2,4.4-2,5.1-3.8c1.1-2.8,1.3-6.1,1-9.2
				c-0.6-6.3-3.5-10.2-7.1-10C446.9,120.7,444.7,124.7,444.3,131.4z M533.8,190.2c16.7-3.2,32.8-6.3,48.9-9.3
				C576.2,173.7,543,179.6,533.8,190.2z M673.5,247.5c-0.4-0.5-0.8-1-1.2-1.6c-22.2,17.2-44.3,34.4-66.5,51.6
				C630.7,283.9,651.2,264.5,673.5,247.5z M565.9,200.9c4,0,7.5-2.9,7.5-6.4c0-3.6-3.1-6.3-7.4-6.4c-4.4-0.1-8,3-8,7
				C558,198.5,561.2,200.9,565.9,200.9z M173.3,203.6c-0.4-0.4-0.8-0.8-1.2-1.2c-17,17.7-34.1,35.4-51.1,53c0.4,0.4,0.8,0.8,1.3,1.2
				C139.2,239,156.3,221.3,173.3,203.6z M133.1,258.6c0.5,0.4,1,0.8,1.4,1.2c17.2-18.3,34.4-36.7,51.6-55c-0.4-0.3-0.7-0.7-1.1-1
				C167.7,222.1,150.4,240.4,133.1,258.6z M196.1,210.4c-0.4-0.4-0.9-0.7-1.3-1.1c-16.3,18.3-32.6,36.6-48.9,54.9
				c0.3,0.3,0.7,0.6,1,0.9C163.3,246.8,179.7,228.6,196.1,210.4z M584.7,189.2c-3.6,0-5.6,1.7-5.5,4.8c0.1,3.3,3.5,6.1,7.7,6.2
				c3.1,0.1,5.1-1.2,5.5-4.4C592.7,192.3,589,189.2,584.7,189.2z M156,205.3c-0.4-0.4-0.9-0.7-1.3-1.1c-13,13.4-26,26.8-39,40.1
				c0.4,0.4,0.8,0.7,1.2,1.1C129.9,232.1,143,218.7,156,205.3z M293.9,222.1c-0.5-0.4-0.9-0.8-1.4-1.2c-11.2,12.3-22.4,24.6-33.7,37
				c0.4,0.4,0.8,0.8,1.3,1.1C271.3,246.7,282.6,234.4,293.9,222.1z M486.3,179.8c-0.4,0.6-0.8,1.3-1.3,1.9
				c6.9,7.5,16.2,11.4,24.7,16.5c0.4-0.6,0.8-1.1,1.1-1.7C502.7,190.9,494.5,185.4,486.3,179.8z M479.4,189.1
				c2,6.8,15.5,17,22.6,17.2C494.5,200.5,487,194.8,479.4,189.1z M516.2,183.9c0.2-0.5,0.4-1,0.6-1.6c-8.4-3.9-16.9-7.8-25.3-11.7
				c-0.2,0.4-0.4,0.8-0.6,1.2C497.7,179.3,506.6,182.2,516.2,183.9z M271.4,214.3c-0.4-0.3-0.9-0.7-1.3-1
				c-11.1,12.4-22.2,24.9-33.3,37.3c0.4,0.4,0.8,0.7,1.2,1.1C249.2,239.2,260.3,226.7,271.4,214.3z M247.7,251.8
				c0.4,0.4,0.8,0.8,1.2,1.2c10-10.9,20.1-21.8,30.1-32.6c-0.4-0.4-0.9-0.8-1.3-1.2C267.7,230,257.7,240.9,247.7,251.8z
				 M640.9,231.1c0.4,0.4,0.8,0.9,1.2,1.3c9.3-8.3,18.7-16.7,28-25c-0.4-0.4-0.8-0.9-1.2-1.3C659.6,214.4,650.2,222.8,640.9,231.1z
				 M305,227.8c-0.3-0.4-0.7-0.8-1-1.2c-8.9,9.8-17.7,19.6-26.6,29.3c0.4,0.4,0.8,0.8,1.3,1.1C287.5,247.4,296.3,237.6,305,227.8z
				 M259.1,212.3c-0.3-0.3-0.5-0.7-0.8-1c-9.6,10.3-19.1,20.6-28.7,30.9c0.4,0.4,0.8,0.7,1.2,1.1
				C240.3,232.9,249.7,222.6,259.1,212.3z M664.9,194.6c-0.4-0.4-0.8-0.8-1.1-1.2c-8.1,7.5-16.2,14.9-24.3,22.4
				c0.4,0.4,0.7,0.8,1.1,1.1C648.7,209.5,656.8,202,664.9,194.6z M470.7,197.4c-0.6,0.6-1.1,1.2-1.7,1.8c5.7,4.9,11.5,9.9,17.2,14.8
				c0.5-0.6,1-1.2,1.5-1.8C482,207.3,476.4,202.4,470.7,197.4z M632.5,185.2c0.6,0.6,1.2,1.3,1.8,1.9c6.6-6.7,13.1-13.3,19.7-20
				c-0.1-0.1-0.1-0.1-0.2-0.2C646.7,173,639.6,179.1,632.5,185.2z M224,234.1c0.4,0.3,0.8,0.7,1.2,1c7.3-8.2,14.6-16.3,22-24.5
				c-0.3-0.3-0.7-0.6-1-0.9C238.8,217.9,231.4,226,224,234.1z M238,206.7c-0.4-0.3-0.7-0.6-1.1-0.9c-6.5,7.3-13,14.6-19.5,21.9
				c0.4,0.3,0.8,0.7,1.2,1C224.9,221.4,231.4,214.1,238,206.7z M542.2,204.7c1.8-2.1,3-3.3,4.1-4.6c-1.3-1-2.6-2.8-3.9-2.7
				c-1.6,0.1-3,1.8-4.5,2.7C539.1,201.4,540.3,202.6,542.2,204.7z M642.7,198.7c3.5-3.8,9.7-10.4,15.9-17.1
				c-0.1-0.1-0.2-0.2-0.3-0.4C652.2,188,646.1,194.8,642.7,198.7z M460.3,166c0.1-0.6,0.1-1.1,0.2-1.7c-4.7-0.6-9.3-1.1-14-1.7
				c-0.1,0.8-0.1,1.5-0.2,2.3C451,165.2,455.7,165.6,460.3,166z M206.4,223.5c0.3,0.3,0.6,0.6,0.9,0.9c4.6-5.1,9.3-10.2,13.9-15.4
				c-0.3-0.3-0.6-0.5-0.9-0.8C215.7,213.3,211.1,218.4,206.4,223.5z M101,340.8c1.8-4.9,0.1-6.6-2.6-7.5c-0.7-0.2-1.8,0.8-2.7,1.2
				C97.2,336.4,98.8,338.2,101,340.8z M299.4,256.6c0.3,0.2,0.6,0.5,0.9,0.7c3.9-4.4,7.7-8.7,11.6-13.1c-0.3-0.3-0.6-0.5-0.9-0.8
				C307.1,247.8,303.3,252.2,299.4,256.6z"/>
			<path class="st0" d="M617.7,126.9c-8.5,9-16.5,17.5-25.1,26.7c1.2-11.2,0.5-21.9,9.9-29.5c2.5-2,4.2-3.3,7.2-1.3
				C612,124.3,614.6,125.3,617.7,126.9z"/>
			<path class="st0" d="M603.3,120c-3.1,3.6-5.4,6.3-8.6,10c0-4.9,0-8.5,0-13C597.5,118,600,118.8,603.3,120z"/>
		</g>
		<path class="st3" d="M392.7,327c-1.7,3.1-3,5.6-5,9.2c-2.3-3.5-3.9-6-6-9.2C385.7,327,388.7,327,392.7,327z"/>
		<path class="st3" d="M40.7,279.5c-1.1-1.9-2.2-3.8-3.9-6.9c2.6,0.3,5.4,0.1,5.6,0.7c0.6,1.9,0.2,4.1,0.2,6.1
			C41.9,279.4,41.3,279.5,40.7,279.5z"/>
		<path class="st2" d="M694.4,271.2c1.6-3.6,2.7-6,3.8-8.3c0.5,0.2,1,0.5,1.5,0.7C700.8,266.9,701,269.9,694.4,271.2z"/>
		<path class="st2" d="M696,254.6c2.2,2.6,5.4,5.4,0,8.5C696,259.9,696,257.2,696,254.6z"/>
		<path class="st2" d="M657.3,350.6c2.8-2.6,5.5-5.2,8.3-7.7c0.5,0.5,1,1.1,1.5,1.6c-2.8,2.5-5.7,5-8.5,7.5
			C658.1,351.5,657.7,351.1,657.3,350.6z"/>
		<path d="M140.3,208.3c10-7,12.1-15.2,2.8-31c6.5,3.9,10.5,14.2,8.3,21.5c-2.5,8.4-15.8,18.3-24.6,18c2.3-1.3,4.2-2.4,5.7-3.3
			c-4.3,0-8.8-0.6-13.1,0.2c-2.4,0.5-4.2,3.4-7.1,5.9c0.6-2.4,1-3.8,1.4-5.6c-1.2-0.4-2.3-0.9-3.4-1.3c3-14.2,12.6-22.5,24.5-28.6
			c4.5-2.3,11.6,3.2,11.4,8.5c-0.1,2.8-0.4,5.7-1.4,8.3C143.9,203.3,142,205.5,140.3,208.3z"/>
		<path d="M673.6,259.6c-26.4,22.6-53.7,44.1-84.3,59.2C616.9,299.4,645.3,279.5,673.6,259.6z"/>
		<path d="M533.8,190.2c9.3-10.5,42.4-16.5,48.9-9.3C566.6,183.9,550.4,187,533.8,190.2z"/>
		<path d="M673.5,247.5c-22.3,17-42.8,36.4-67.7,50.1c22.2-17.2,44.3-34.4,66.5-51.6C672.7,246.5,673.1,247,673.5,247.5z"/>
		<path d="M565.9,200.9c-4.7,0-7.9-2.4-7.9-5.8c0-4,3.6-7.1,8-7c4.3,0.1,7.4,2.8,7.4,6.4C573.4,198,569.9,200.9,565.9,200.9z"/>
		<path d="M675.5,232.1c-5,4.4-9.7,9-15,13c-13.7,10.3-27.6,20.3-41.4,30.3c-0.7,0.5-1.6,1-2.9,0.6c4.5-3.4,9.1-6.9,13.6-10.3
			c12.3-9.4,24.5-18.8,36.9-28.1c2.8-2.1,5.9-3.6,8.9-5.4C675.6,232.2,675.5,232.1,675.5,232.1z"/>
		<path d="M173.3,203.6c-17,17.7-34.1,35.4-51.1,53.1c-0.4-0.4-0.8-0.8-1.3-1.2c17-17.7,34.1-35.4,51.1-53
			C172.5,202.8,172.9,203.2,173.3,203.6z"/>
		<path d="M133.1,258.6c17.3-18.3,34.6-36.5,51.9-54.8c0.4,0.3,0.7,0.7,1.1,1c-17.2,18.3-34.4,36.7-51.6,55
			C134,259.4,133.5,259,133.1,258.6z"/>
		<path d="M196.1,210.4c-16.4,18.2-32.8,36.4-49.2,54.7c-0.3-0.3-0.7-0.6-1-0.9c16.3-18.3,32.6-36.6,48.9-54.9
			C195.2,209.7,195.7,210,196.1,210.4z"/>
		<path d="M584.7,189.2c4.3,0,8,3.1,7.6,6.7c-0.3,3.2-2.3,4.5-5.5,4.4c-4.2-0.2-7.6-2.9-7.7-6.2
			C579.1,190.9,581.1,189.2,584.7,189.2z"/>
		<path d="M156,205.3c-13,13.4-26.1,26.8-39.1,40.2c-0.4-0.4-0.8-0.7-1.2-1.1c13-13.4,26-26.8,39-40.1
			C155.2,204.6,155.6,204.9,156,205.3z"/>
		<path d="M293.9,222.1c-11.3,12.3-22.5,24.6-33.8,36.9c-0.4-0.4-0.8-0.8-1.3-1.1c11.2-12.3,22.4-24.6,33.7-37
			C293,221.3,293.4,221.7,293.9,222.1z"/>
		<path d="M486.3,179.8c8.2,5.5,16.4,11.1,24.6,16.6c-0.4,0.6-0.8,1.1-1.1,1.7c-8.5-5.1-17.8-9-24.7-16.5
			C485.5,181.1,485.9,180.4,486.3,179.8z"/>
		<path d="M479.4,189.1c7.5,5.7,15.1,11.5,22.6,17.2C494.9,206.1,481.5,195.9,479.4,189.1z"/>
		<path d="M516.2,183.9c-9.5-1.7-18.5-4.6-25.3-12c0.2-0.4,0.4-0.8,0.6-1.2c8.4,3.9,16.9,7.8,25.3,11.7
			C516.6,182.9,516.4,183.4,516.2,183.9z"/>
		<path d="M271.4,214.3c-11.1,12.5-22.3,24.9-33.4,37.4c-0.4-0.4-0.8-0.7-1.2-1.1c11.1-12.4,22.2-24.9,33.3-37.3
			C270.6,213.6,271,213.9,271.4,214.3z"/>
		<path d="M247.7,251.8c10-10.9,20-21.8,30-32.6c0.4,0.4,0.9,0.8,1.3,1.2c-10,10.9-20.1,21.8-30.1,32.6
			C248.5,252.6,248.1,252.2,247.7,251.8z"/>
		<path d="M640.9,231.1c9.4-8.3,18.7-16.7,28.1-25c0.4,0.4,0.8,0.9,1.2,1.3c-9.3,8.3-18.7,16.7-28,25
			C641.7,232,641.3,231.6,640.9,231.1z"/>
		<path d="M305,227.8c-8.8,9.8-17.5,19.5-26.3,29.3c-0.4-0.4-0.8-0.8-1.3-1.1c8.9-9.8,17.7-19.6,26.6-29.3
			C304.4,227,304.7,227.4,305,227.8z"/>
		<path d="M259.1,212.3c-9.4,10.3-18.9,20.7-28.3,31c-0.4-0.4-0.8-0.7-1.2-1.1c9.6-10.3,19.1-20.6,28.7-30.9
			C258.6,211.6,258.9,211.9,259.1,212.3z"/>
		<path d="M630.6,137.3c-5.3,6.3-10.5,12.7-16,18.9c-2.8,3.1-5.9,5.9-8.9,8.9c-0.3-0.3-0.7-0.7-1-1c4.5-5,8.8-10.1,13.5-14.9
			c4-4.1,8.4-7.8,12.6-11.7C630.7,137.4,630.6,137.3,630.6,137.3z"/>
		<path d="M664.9,194.6c-8.1,7.4-16.2,14.9-24.3,22.3c-0.4-0.4-0.7-0.8-1.1-1.1c8.1-7.5,16.2-14.9,24.3-22.4
			C664.2,193.8,664.5,194.2,664.9,194.6z"/>
		<path d="M470.7,197.4c5.7,5,11.3,9.9,17,14.9c-0.5,0.6-1,1.2-1.5,1.8c-5.7-4.9-11.5-9.9-17.2-14.8
			C469.6,198.6,470.1,198,470.7,197.4z"/>
		<path d="M632.5,185.2c7.1-6.1,14.2-12.2,21.3-18.2c0.1,0.1,0.1,0.1,0.2,0.2c-6.6,6.7-13.1,13.3-19.7,20
			C633.7,186.5,633.1,185.8,632.5,185.2z"/>
		<path d="M224,234.1c7.4-8.1,14.8-16.2,22.2-24.3c0.3,0.3,0.7,0.6,1,0.9c-7.3,8.2-14.6,16.3-22,24.5
			C224.8,234.8,224.4,234.5,224,234.1z"/>
		<path d="M238,206.7c-6.5,7.4-13,14.7-19.5,22.1c-0.4-0.3-0.8-0.7-1.2-1c6.5-7.3,13-14.6,19.5-21.9
			C237.2,206.1,237.6,206.4,238,206.7z"/>
		<path d="M542.2,204.7c-1.9-2.1-3.1-3.3-4.3-4.6c1.5-1,2.9-2.6,4.5-2.7c1.2-0.1,2.6,1.8,3.9,2.7
			C545.2,201.4,544.1,202.7,542.2,204.7z"/>
		<path d="M642.7,198.7c3.4-3.8,9.5-10.6,15.6-17.4c0.1,0.1,0.2,0.2,0.3,0.4C652.4,188.3,646.2,194.9,642.7,198.7z"/>
		<path d="M460.3,166c-4.7-0.4-9.3-0.8-14-1.2c0.1-0.8,0.1-1.5,0.2-2.3c4.7,0.6,9.3,1.1,14,1.7C460.4,164.8,460.4,165.4,460.3,166z"
			/>
		<path d="M206.4,223.5c4.7-5.1,9.3-10.2,14-15.3c0.3,0.3,0.6,0.5,0.9,0.8c-4.6,5.1-9.3,10.2-13.9,15.4
			C207,224,206.7,223.8,206.4,223.5z"/>
		<path d="M101,340.8c-2.2-2.6-3.7-4.4-5.3-6.2c0.9-0.4,2-1.4,2.7-1.2C101.1,334.2,102.8,335.9,101,340.8z"/>
		<path d="M299.4,256.6c3.9-4.4,7.7-8.8,11.6-13.1c0.3,0.3,0.6,0.5,0.9,0.8c-3.9,4.4-7.7,8.7-11.6,13.1
			C300,257.1,299.7,256.8,299.4,256.6z"/>
		<path class="st3" d="M417.2,157c-1.3-10.5-0.7-19.2,0.1-25.1c1.4-10.7,4.4-32.7,21.9-45.9c5.4-4.1,11-8.3,16.4-6.6
			c12.9,3.9,18.7,38.4,7.4,64.3c-2.9,6.7-6.5,11.7-9.3,15.1C441.5,158.2,429.3,157.6,417.2,157z"/>
		<path d="M444.3,131.4c0.5-6.7,2.6-10.7,6.2-10.9c3.5-0.2,6.5,3.6,7.1,10c0.3,3,0,6.4-1,9.2c-0.7,1.8-3.3,3.7-5.1,3.8
			c-1.5,0.1-3.9-1.9-4.7-3.6C445.4,137.3,445,134.2,444.3,131.4z"/>
		<path d="M510.9,174.1"/>
		<path class="st3" d="M510.9,174c-8-17.6-8.6-32.4-8.4-40.3c0.3-7.8,1.6-13.7,2.6-18.2c4.4-19.6,12.1-30.2,14.7-33.6
			c5.5-7.1,9.3-9.2,12.6-10.2c5.6-1.7,10.6-0.4,11.7,0c1.9,0.5,4.6,1.6,8.3,4.5c7.1,5.6,10.9,12.4,12.5,15.7
			c6.7,13.3,8.5,25.8,9.3,34c1.2,11.3,2.5,21.8-1.2,34.8c-1.6,5.7-3.8,10.2-5.3,13.2C548.7,173.9,529.8,174,510.9,174z"/>
		<path d="M551.2,139.9c-0.7,3.2-0.9,6.9-2.4,9.9c-1.1,2.1-4.3,4.8-6.1,4.5c-2.3-0.4-5.6-3.5-5.7-5.6c-0.3-5.7,0.4-11.5,1.6-17.1
			c0.4-1.8,3.7-4.3,5.5-4.2c2,0.1,4.5,2.5,5.6,4.5C550.9,134.1,550.7,137,551.2,139.9z"/>
		<path d="M638.5,284.7l-1.1,0.5c0.3,0.2,0.5,0.4,0.8,0.5C638.3,285.4,638.4,285,638.5,284.7z"/>
		<path d="M917.9,566.1c-2.4-1.8-5.9-3.5-8.5-3c-11.8,2.1-23.6,4.4-35.1,7.9c-5.2,1.6-8.7,2.9-13.9-0.9
			c-12.5-9.3-25.5-3.5-28.7,12.6c-1.7,8.6-1.8,17.6-3.1,26.3c-0.4,2.6-2.2,6.1-4.2,6.9c-16,6.5-22.3,19.6-17.1,36.6
			c1.8,5.8,3.8,11.6,5.8,17.8c-18.1,6.4-18.8,22.7-18.5,40.6c-8.2-12.3-16.4-20.3-30-17.9c-13.3,2.3-18.6,13.8-25.2,25.5
			c-0.5-25.5,2.5-29.5-26.8-35.4c0.8-2.3,1.2-4.7,2.3-6.6c10.5-17.6,15.7-37.1,18.5-57.4c1.7-12.3-2.3-23.3-12.5-28.8
			c-13.6-7.4-28.3-12.4-43-18.6c12.1-13.9,21-31.5,27.4-50.5c3.3-9.8,5.5-19.4-1.5-28.9c-8.2-11-19.2-17.2-31.2-22
			c-4.6-1.8-9.2-3.6-14.3-5.7c10.9-11.7,21.9-22.9,22-39.1c0.2-17.6-14.1-25.1-26.4-33.6c3.1-3,5.6-6,8.6-8.3
			c7.6-5.9,18.3-19.4,23-36.6c0.6-2.3,7.1-26.7-1.8-31.9c6.8-4.4,13.9-8.7,19.6-14.4c19.8-20,18.7-49.9-2.2-66.3
			c-4.3-3.3-5.6-6.9-6.5-11.9c-1.3-7.2,0.3-11.8,5.7-17.2c12.2-12.3,17.6-27.4,11.9-44.8c-5.5-16.8-17.7-26.3-34.7-29.3
			c-6.6-1.2-13.6-0.5-20.4-0.3c-5.3,0.2-10.8-6.5-9-11.3c3.1-8.6,2.6-17.1-0.9-25.3c-11.7-27.7-44.1-29.3-62.3-19.2
			c-1.7,0.9-3.4,1.9-5.1,2.9c-2.2-3.1-4-5.9-6.1-8.4c-15.4-19.5-38-24-58-11.6c-9.8,6.1-17,14.8-22.6,24.9c-1.4,2.5-2.9,5-4.6,8
			c-2.1-4.2-3.6-7.7-5.5-11c-8-13.9-20.4-20.8-34.8-17.7c-7.2,1.6-15,4.6-20.6,9.3c-21.4,17.9-30.6,41.8-29.8,69.4
			c0.1,5.2-1.1,7.3-5.8,8.8c-28.6,9.6-57.2,18.8-86.8,24.9c-30.8,6.3-61.9,9.4-93.3,5.8c-16.5-1.9-32.8-5.3-49.2-8.3
			c-1.5-0.3-3.1-2.2-4-3.8c-5.4-9.7-13.4-15.5-24.5-16.8c-11-1.2-20.7,1.6-29.4,8.6c-1.6,1.3-4.3,2.6-6.1,2.2
			c-8-1.9-15.6-0.6-22.9,2.7c-3,1.4-5.2,1.3-8.2-0.7c-9.6-6.5-19.6-6.2-27.7,0.7c-7.9,6.7-11.8,15.4-11.3,26
			c0.1,2.1-0.9,4.9-2.4,6.2c-18.1,15.6-21.4,46.4-6.1,65.1c4.9,6,11.1,10.8,12.4,18.9c0.1,0.5,0.5,0.9,0.8,1.3
			c5.6,8.3,13.7,7.8,18.2-1.2c0.3-0.7,0.8-1.3,1.2-2.1c4.7,2.8,9.1,5.4,13.6,8.1c-0.6,1.3-1,2.4-1.5,3.4C56,308.9,58,326.5,69,343.2
			c8.9,13.5,22.2,21.3,36.9,27c17.4,6.7,35.6,10,54,11.9c62,6.7,123.6,4.2,185.1-6.2c3.3-0.6,7-0.3,10.2,0.6
			c12.3,3.5,24.4,7.4,36.6,11.2h1.3c3.8,3.3,8.3,8,12.2,14.6c3,5.1,4.7,9.8,5.7,13.2c-7.3,14.6-13.7,27.2-20.1,40
			c-21.9-18.4-55.8-19.9-75.8,2.9c-7.9-3.2-15.1-8-22.8-9c-6.3-0.8-37.7-7.3-56.1,15.3c-8.9,11-13.6,27.2-10,43.1
			c4.6,20.7,22.4,36.7,44.5,39.5c12.3,38.5,37.6,56.1,74.9,56c-0.3,1.8-0.4,3.1-0.7,4.4c-4.5,24.9-8.7,49.6-6.5,75.2
			c2.5,29,10,55.6,27.6,78.6c2.1,2.8,2.2,8.1,1.8,12.1c-1.6,14.9-0.2,29,7.2,42.1c2.1,3.7,4.9,7,7.7,11c-12.2,2.6-24.1,3.6-34.8,7.8
			c-11.3,4.4-18.9,14.2-21.5,28.5c-16.6,0-33.2,0-49.7,0c0,1.1,0,2.3,0,3.4c25.9,0,51.9,0,77.8,0c0,0.7,0,1.4-0.1,2.1
			c-13.5,0.8-27,1.6-40.5,2.4c0,0.7,0,1.4,0,2c49,0,98,0,147,0c0.1-0.5,0.1-1.1,0.2-1.6c-18.7-1-37.4-2.1-56.1-3.1
			c14.4-1.3,28.8-0.8,43.2-1.4c12.7-0.5,15.4,0.6,20.2-13.5c1.8-5.4,5.1-10.2,7.2-14.4c15.4,2.4,29.7,4.6,44.2,6.8
			c-5,4.5-10.6,8.2-14.3,13.4c-2.6,3.6-4,9.5-3.1,13.8c0.4,2.1,7.2,3.9,11.1,3.9c48.1-0.3,96.2-0.9,144.3-1.5
			c43.7-0.5,87.4-1,131.1-1.6c1.9,0,3.9-0.3,5.8-0.4c0-0.7,0-1.4,0-2.2c-2.1-0.5-4.1-1.1-6.2-1.6c0-0.4,0-0.8,0.1-1.3
			c12.5,0,25,0,37.5,0c0-0.7,0-1.5-0.1-2.2c-31.3,0-62.6,0-93.9,0c0,0.6,0,1.2-0.1,1.9c11.3,0,22.5,0,33.8,0c0,0.5,0,1.1-0.1,1.6
			c-33,0-65.9,0-99.6,0c1.4-4.2,2.4-7.1,3.3-9.7c8.2,0,15.9-0.5,23.6,0.1c41.8,3.3,83.4,3.9,124.6-7c39.7-10.5,71.4-51.7,70.1-94.7
			c-1-31.3-1.6-62.6-1.7-93.9c-0.1-17.5,1.7-35,1.5-52.5c-0.1-10.5,3.3-18.7,11-24.5c5.5-4.2,12.1-6.7,18.2-10.1
			c2.1-1.2,5.9-3.1,5.7-4.2C921.9,570.5,920,567.6,917.9,566.1z M854.7,582c-5.2,4.5-10.5,9-13.6,11.7
			C842.2,580.1,847.3,574.3,854.7,582z M825.8,628.1c-2.8,8.1-5.1,14.9-7.8,22.8C817.6,642,815.7,633.7,825.8,628.1z M760.9,708.9
			c2.2-2.3,7.1-2.2,10.8-2.4c1.4-0.1,3.3,1.6,4.3,3.1c2.8,4,5.2,8.3,7.8,12.5c-4.2,2-8.4,4-11.1,5.3c-4.6-0.4-7.3-0.3-9.7-0.9
			c-3.4-0.9-6.7-2.4-10.1-3.6C755.6,718.1,757.4,712.5,760.9,708.9z M709.8,602c2.1,0.9,4.3,4.3,4.4,6.6
			c1.5,21.7-4.3,41.7-13.7,60.7c-1.1,0.3-2.1,0.6-3.2,0.9c-7.7-26.8-15.4-53.6-23.1-80.4c0.9-0.6,1.7-1.2,2.6-1.7
			C687.8,592.7,698.9,597.1,709.8,602z M683.8,495.2c6.1,4.1,7.5,10.3,4.6,17.5c-5.5,13.6-10.7,27.4-16,41.1
			c-0.8-0.3-1.6-0.6-2.3-0.8c-3.5-23.4-6.9-46.9-10.7-72.1C668.1,485.9,676.2,490.1,683.8,495.2z M654.2,444.6
			c-1.8-13.8-3.5-26.4-5.2-38.8C667.5,414.4,670.4,428.2,654.2,444.6z M643.7,367.3c-2.6,1.3-5.3,2.3-8.2,3.1c2.9-2,5.9-4,8.8-6.1
			C644.1,365.4,643.9,366.4,643.7,367.3z M696,254.6c2.2,2.6,5.4,5.4,0,8.5C696,259.9,696,257.2,696,254.6z M698.2,262.9
			c0.5,0.2,1,0.5,1.5,0.7c1.1,3.4,1.4,6.4-5.3,7.7C696,267.7,697.1,265.3,698.2,262.9z M694.5,274.8c0.5-1.5,2.6-2.5,4-3.7
			c0.6,0.4,1.1,0.9,1.7,1.3c-2.6,5.6-5.3,11.1-7.9,16.7c-0.5-0.2-0.9-0.5-1.4-0.7C692.1,283.9,693,279.2,694.5,274.8z M695.5,161
			c4.2,9,1,20.3-8,28.2c-3.8-7.4,4.9-9.5,6.3-15.4c-3.2,2.8-5.9,5.1-8.6,7.6c-3.8-4.5,0.7-5.2,2.5-7c2.1-2,4.4-3.9,6.6-5.9
			c-0.3-0.4-0.6-0.8-0.9-1.2c-3.6,2.5-7.1,5-10.8,7.7c-2.6-2.9-3.6-5.2,0.4-7.7c1.9-1.2,3.3-3.1,4.3-5.6c-2.7,1.9-5.5,3.7-8.2,5.5
			c-4.3-5-4.3-5,1.9-12.3c-2.1,1.4-4.1,2.9-7.3,5.1c-0.8-3.1-1.5-5.6-2.1-7.9c-5,2.3-3.7-4.9-7.6-6.3
			C675.8,143.7,691.1,151.4,695.5,161z M589.9,87.5c13.5-3.4,26.4-2.5,37.9,6c5.1,3.8,6.7,10.5,5.4,19.2c-0.5,0.3-1.1,0.6-1.6,0.9
			c-0.7-1.6-1.3-3.3-1.8-4.5c-1.4,0-3.3,0-5.2,0c0.6-2.4,1.2-4.8,1.9-7.5c-2.7,1.3-4.3,8.4-9.2,2.4c1.6-2.4,3.2-5,4.8-7.6
			c-0.2-0.2-0.5-0.4-0.7-0.6c-1.5,1.8-2.9,3.8-4.6,5.4c-1,0.9-2.7,1.1-4.1,1.6c0-1.4-0.2-2.9,0.2-4.1c0.6-1.7,1.7-3.2,2.8-5.1
			c-4.6,0.6-3.8,9-10.6,6.1c1.5-3,2.9-5.7,4.2-8.4c-0.2-0.2-0.3-0.3-0.5-0.5c-1.2,1.5-2.7,2.9-3.6,4.6c-2.2,4.1-5.1,4.7-9.4,2
			c1.4-2.5,2.9-5,4.3-7.5c-0.2-0.2-0.5-0.4-0.7-0.6c-1.5,2-2.8,4.1-4.5,5.8c-1.2,1.2-3,1.8-4.5,2.7c-1.1-2.5-2.4-4.9-3.1-7.5
			C587.1,89.6,588.8,87.8,589.9,87.5z M602.5,124c2.5-2,4.2-3.3,7.2-1.3c2.3,1.5,5,2.6,8,4.1c-8.5,9-16.5,17.5-25.1,26.7
			C593.8,142.4,593.1,131.7,602.5,124z M594.7,130c0-4.9,0-8.5,0-13c2.8,1,5.3,1.9,8.6,3C600.2,123.6,597.9,126.3,594.7,130z
			 M42.6,279.4c-0.6,0-1.3,0.1-1.9,0.1c-1.1-1.9-2.2-3.8-3.9-6.9c2.6,0.3,5.4,0.1,5.6,0.7C43,275.2,42.6,277.3,42.6,279.4z
			 M362.3,363.9c4.7-2.8,8.4-5,12.1-7.2c-0.1-0.3-0.2-0.7-0.3-1c-1.9,0-3.8-0.2-5.7,0c-25.5,2.6-50.9,5.6-76.5,7.8
			c-54.1,4.7-108.1,5.4-161.5-6.4c-13.5-3-26.1-7.8-37.3-16.1c-14.4-10.7-19.3-27.4-12.9-42.9c1.3-3.2,2.6-4.2,6.6-3.3
			c10.8,2.4,21.9,4,32.9,5.3c3.4,0.4,4.6,1.5,5.7,4.7c2,5.9,4.1,12.1,7.4,17.3c5.7,8.8,14.1,9.1,21.2,1.3c6.4-7,9.4-15.7,10.5-24.9
			c0.4-3.1,1.8-4.1,4.4-5.6c9.3-5.3,18.4-11.3,27.4-17.1c2.5-1.6,4.6-3.7,8.1-6.5c1.2,1.8,2.2,3.5,3.5,5
			c12.6,15.3,27.4,27.1,47.7,30.6c1.2,0.2,2.4,2.6,2.9,4.2c1.4,5.4,1.8,11.2,3.9,16.3c3,7.1,9.2,8.2,15.6,3.8
			c7.6-5.3,11.3-13.3,14.9-21.4c0.8-1.7,2.6-3.6,4.2-4c9.4-2.2,17.9-6.1,25.8-12.4c0.8,1.2,1.6,2.2,2.3,3.2
			c9.8,17.1,24.5,27.3,43.8,30.6c3.5,0.6,5.6,1.9,6.8,5.4c0.9,2.8,2.4,5.6,4.1,7.9c4.9,6.4,12.3,6.3,17.3,0c0.3-0.4,0.7-0.8,0.9-1.2
			c2.1-8.9,9-11.1,16.8-11.9c1.1-0.1,2.3-0.5,3.4-0.9c5.5-1.9,17.9-2.4,24-1.6c5.1,0.7,10.3,1,15.4,0.9c3.1,0,4.8,0.6,6.2,3.6
			c3.3,7.2,8.1,13.5,16.8,12.4c8.7-1.1,12.8-8.1,14.4-16c1.1-5.4,3.5-7.5,8.6-8.9c26.8-7.5,46-24.8,59.5-48.5
			c3.7-6.5,5.5-14.1,8.2-21.2c21.6,5,33.9,2.6,36.4-8.4c-18.1,10.6-34.3,5.5-49.1-5.5c-6.6,8.3-13.8,4-22,2.4
			c5,6.4,10.9,7.8,18.7,7.3c-1.2,4-2,7.7-3.4,11c-9,20.7-24.8,34.2-45.3,42.7c-20.1,8.3-40.8,13.5-62.7,11.3
			c-2.2-0.2-4.2-1.9-6.4-2.5c-1.2-0.4-2.7-0.1-4.4-0.1c-0.4-0.8-0.9-2-1.4-3.1c-19.1,13.3-39.5,11.8-60,6
			c-21.3-6-34.3-20.4-40.4-41.9c-0.6,0.7-1.2,1.4-2,2.2c-0.5-0.7-1-1.4-1.6-2.2c-1,1.1-1.7,2.2-2.7,3.1c-25.2,24.3-60,28.6-88.7,7.7
			c-4-2.9-8-6.1-11.3-9.8c-2.4-2.7-3.6-6.6-5.8-9.6c-0.8-1-2.9-1.1-4.5-1.5c-1.4-0.3-3.9-0.2-4-0.6c-1-4.7-4.2-2.5-7-2.3
			c-0.3-1-0.5-1.9-0.9-3.3c-8,5.7-15.8,11.1-23.3,16.8c-14.4,11-30.6,16.4-48.7,16.7c-24,0.3-45.9-6.6-66.6-18.3
			c-3-1.7-4.7-4-4.5-7.6c0.1-2.4,0-4.7,0-7.1c-0.5,0-1,0-1.5,0c-0.2,3.2-0.3,6.4-0.5,9.9c-9.2-4-12.3-11.2-11.3-20.8
			c-0.5,0-0.9,0.1-1.4,0.1c-0.8,2.2-1.7,4.3-2.7,7.1c-0.3-2-0.6-3.5-0.8-5c-0.3,0-0.7-0.1-1-0.1c-0.6,5.2-1.3,10.4-1.9,15.7
			c-0.2,0.1-0.3,0.1-0.5,0.2c-0.8-4.3-1.7-8.6-2.5-12.9c-0.4,0.1-0.8,0.1-1.2,0.2c0.8,6,1.5,11.9,2.2,17.7c-8.7-3.4-14.3-18-12.4-33
			c1.5-12.1,8.6-26.2,13.8-27c0.2-8.7,1.1-17.3,7.9-23.9c4.4-4.3,8.3-4.7,12.5-1.3c-2.8,4.5-5.6,9.1-8.3,13.7
			c0.4,0.3,0.7,0.5,1.1,0.8c3.5-3.3,7.1-6.6,9.8-9.1c2.4,0.3,3.9,0.9,5.2,0.5c7-1.9,13.9-4.2,21-6.2c1.6-0.4,3.4-0.1,5.5-0.1
			c-2.1,4.1-3.9,7.5-5.7,10.9c0.3,0.2,0.6,0.4,1,0.5c0.8-1.1,1.7-2.3,3.4-4.6c-0.6,5.6-1,9.9-1.5,14.3c0.4,0.2,0.7,0.4,1.1,0.6
			c2.3-3.3,4.4-6.7,6.9-9.7c4.4-5.3,8.8-10.9,13.9-15.6c6.4-5.9,14.6-7.2,23-5.8c8.3,1.3,13.4,6.7,16.2,14.5c1.1,3.1,2.7,5.9,4,8.9
			c0.3-0.6,0.5-1.1,0.8-1.7c2.8,0.1,5.8-0.5,8.3,0.4c21,7.5,42.5,11.8,64.8,12.3c23.3,0.5,46.5-1,69.6-4.5c2.2-0.3,4.9,0.7,6.9,1.9
			c6.6,3.8,13,7.9,19.4,11.9c0.4-0.5,0.7-0.9,1.1-1.4c-5.5-4.6-11-9.3-16.8-14.2c7.8-2.9,14.9-5.3,22.8-0.5c6.4,4,13.3,7.2,20,10.7
			c0.4-0.5,0.7-1,1.1-1.6c-6.7-4.9-13.3-9.8-20.2-14.9c9.5-3.2,18.8-6.8,29.1-2.1c6.4,3,13.3,5,20,7.5c0.3-0.5,0.5-1,0.8-1.5
			c-6.9-3.8-13.9-7.5-21.5-11.7c7.8-2.3,14.5-7.5,23.2-3.3c6.7,3.2,13.7,5.7,20.6,8.4c0.3-0.5,0.6-1,0.8-1.5
			c-6.6-3.7-13.2-7.4-19.9-11.2c3.1-2.5,6.4-4.8,11.4-2.8c8.6,3.6,17.3,6.8,26,10.3c1.6,0.6,3.3,1.3,5.1,1.6
			c-7-7.9-16.3-12-26.3-15.8c3.9-4.1,7.8-4,12.2-2.3c7.2,2.7,14.4,5.1,21.7,7.6c0.8,0.3,1.8,0.2,3.8,0.4
			c-7.6-7.3-16.9-8.9-26.1-12.9c1.9-0.5,3-0.8,3.8-1c-2.7-23.2,1.5-44.6,14.8-63.7c3.4-4.8,8.7-8.8,13.9-11.7
			c7.4-4.1,14.8-1.2,18.3,6.4c1.9,4.2,3.3,8.8,3.9,13.3c1.8,15.3,0,30.3-6.2,44.5c-1.8,4.1-4.9,7.8-8.2,12.9
			c3.4-1.4,5.9-2.4,8.4-3.4c3.6-1.4,5.5-6.4,10.6-5.1c0.6,0.2,2-2.4,3.2-3.9c0.8,0.3,1.7,0.7,3,1.2c1.3-3.5,2.5-6.9,4.2-11.7
			c3.7,17.9,10.1,32.5,27.4,39.9c0.3-1.3,0.6-1.9,0.4-2.2c-11.4-23-9.6-46.6-2.2-70c2.4-7.8,6.4-15.5,11.2-22.1
			c10.4-14.3,25.4-14.6,37.1-1.4c11.4,12.9,16,28.8,17.3,45.4c0.9,10.7,0.3,21.6-0.8,32.3c-0.5,5.3-3.7,10.3-5.8,15.6
			c6.9-2.4,11.2-9,17.5-13.1c0.2,0.5,0.6,1.5,1,2.5c0.6-0.3,1.2-0.5,1.4-0.8c8-12.7,21.2-20.6,30-32.6c0.6-0.8,3-1.2,3.7-0.6
			c3.3,2.5,6.3,5.3,9.3,8l-0.1-0.1c5,4.3,9.9,8.5,14.9,12.8c-7.8,8.4-14.9,16-22,23.6c0.4,0.4,0.9,0.8,1.3,1.3
			c7-7.4,14.1-14.9,21.8-23c4.7,7.6,9.5,14.8,13.6,22.3c6.6,12.2,10.9,25.2,13.7,38.8c0.7,3.4,0.4,5.5-2.7,8
			c-17.8,13.9-35.3,28.3-52.6,43c4.8-3.1,9.7-6.1,14.3-9.4c4.9-3.5,9.5-7.3,14.1-11.1c4.7-3.7,9.3-7.5,13.9-11.4
			c4.5-3.8,8.8-7.9,13.2-11.8c0.5,0.1,1.1,0.2,1.6,0.3c0,3.8,0,7.7,0,11.5l-0.1-0.1c0.2,8.4-0.2,16.9,0.6,25.2
			c1.4,13.7-8,19.3-17.1,26.2c-27.9,21.2-57.5,39.6-89.5,54.2c-2.4,1.1-4.7,2.5-6.8,4.1c40.4-15,76-38,109-65.7
			c1.6,6.3-0.8,11.2-5.8,14.7c-9.2,6.3-18.2,12.8-27,19.6c-28.3,21.9-59.9,37.7-93,50.6c-4,1.6-7.9,3.5-11.7,5.5
			c50.4-14.3,93.6-41.7,133.9-74.6c-0.6,5.3-1.8,10.2-6,13.7c0,0,0,0,0,0c-7.5,5.1-15.4,9.7-22.6,15.3
			c-37.7,29.5-79.9,48.7-126.8,58c-30.3,6-60.9,7.6-91.7,6.4c24-3.3,47.9-6.7,71.9-10c0-0.2-0.1-0.4-0.1-0.7
			c-10.9,0.8-21.9,2-32.8,2.3c-15.1,0.4-30.3,0.1-45.4,0.1c0-0.5,0-0.9-0.1-1.4c17-2.4,34.1-4.9,51.1-7.3c0-0.4-0.1-0.7-0.1-1.1
			c-8.3,0.7-16.6,1.2-24.8,2.2c-8.3,1-16.4,2.9-24.7,3.5c-8.4,0.6-16.8,0.1-25.2-0.8c13.8-2.6,27.6-5.1,41.4-7.7
			c-0.1-0.5-0.1-0.9-0.2-1.4C409.2,363.4,386.4,366.7,362.3,363.9z M130.9,300.3c8.6-1.3,16.3-2.5,24.8-3.7
			c-1.9,8.1-4.2,14.9-9.2,20.4c-3.2,3.5-5.5,3.4-7.8-0.6C135.8,311.3,133.5,305.8,130.9,300.3z M266.2,305.4c5.8,0,10.8,0,17.5,0
			c-4.4,5.7-8.3,10.7-12.1,15.6c-0.8-0.2-1.6-0.5-2.4-0.7C268.2,315.6,267.3,310.8,266.2,305.4z M381.7,327c4,0,7,0,11,0
			c-1.7,3.1-3,5.6-5,9.2C385.4,332.7,383.8,330.3,381.7,327z M469.9,322c5.6-1.3,10.4-2.3,16-3.6c-1.4,5.4-2.2,11-7.1,11.9
			C474.5,331,472.7,325.9,469.9,322z M407.3,463c3.3-12.6,10.4-18.3,23.4-15.5c6.2,1.3,12.8,0.1,19.2-0.2c2.4-0.1,4.7-1,6.8-3.1
			c-13.3,0-26.5,0-40.9,0c3-6.1,5.3-11.4,8.3-16.2c1.1-1.7,4.1-3.1,6.1-2.8c21.6,2.9,43,1.6,64.1-3.9c4.5-1.2,8.4-4.6,12.6-7.1
			c-0.2-0.7-0.4-1.3-0.6-2c-25,12.6-51.8,10.3-78.2,11c-0.3-0.7-0.6-1.4-0.8-2.1c2-0.9,3.9-2.4,6-2.5c14.5-1.3,29.2-1.9,43.6-3.7
			c7.8-1,15.4-3.8,22.9-6.3c4.8-1.6,7.8-1,10.9,3.6c7.7,11.2,10.6,24.2,13.4,37.2c0.4,1.8-0.9,4.7-2.4,6.1
			c-18.5,18-39.2,31.3-65.6,29c-18-1.6-34.7-7.8-49-19.3C407.3,464,407.1,463.5,407.3,463z M261.3,504.8c-3.1,6.3-3.8,6.6-11.3,5.2
			c-1.9-11.7,3.5-21.6,8.2-32.1c-4.4-3.8-7.2-1.7-9.8,1.8c-7.4,9.9-8.8,14.7-11,39.7c-2.9-3.1-5.4-4.8-6.4-7.2
			c-5.2-12.7,0.4-23,9-30.7c15-13.5,32.4-21.1,52.8-18c8.7,1.3,13.5,6.7,13.5,16.1c0,7.8,1.8,13.9,8.8,17.9c1.9,1.1,3,4.7,3.5,7.4
			c2.5,12.3,10.9,18.1,22.5,15.1c7.8-2,15.6-3.9,25.2-6.3c-11.9,11.5-21.8,22.8-37.4,24.8c-13.1,1.7-22.5-9.3-19-22.7
			c3.3-12.7-4.8-26-17.2-28C276.4,485.3,269.1,489.2,261.3,504.8z M276.2,510.6c2.5,1.2,4.4,2.1,6.4,3c0.4-0.3,0.8-0.6,1.1-0.9
			c-1.5-2-3-4-5.9-8c4.1-0.9,7.5-2.5,10.8-2.1c2,0.2,5.6,4,5.3,5.2c-1.3,4.5-3,9.6-6.2,12.7c-2.8,2.8-7.7,3.4-13.2,5.6
			C275.2,520.2,275.7,515.7,276.2,510.6z M285,547.7c-0.7-1.6,0.5-5.7,2-6.7c5.8-3.9,10.7-6.7,16.6,2.3c8.3,12.8,27.2,14.8,42.8,6.7
			c5.2-2.7,10.1-5.9,15.5-9.1c-4.1,15.4-8.2,30.5-12.1,45.3C317.1,591.7,295.9,570.4,285,547.7z M453,849.1
			c-0.6,1.2-2.9,1.9-4.4,1.9c-26.2,0.1-52.4,0.1-78.3,0.1c1.3-0.7,3.3-2.5,5.5-2.9c5.9-1.1,8.2-3.5,3.6-9.6
			c6.7-0.7,12.8-1.1,18.9-2.1c2-0.3,4.9-1.4,5.6-2.9c0.6-1.4-1.2-4-2.1-6.1c-0.2-0.4-0.8-0.6-1.2-1c-13.1-14.2-13.4-14.8-14.6-36.9
			c21.2,21.4,45.7,35.4,73.5,45C457.3,839.7,455.4,844.6,453,849.1z M521.5,829.8c-28.3-3.3-56.2-8.7-81.8-22.5
			c-31.4-17-56.3-41.7-70.2-75.9c-6.9-16.9-9.7-36.1-11.6-54.6c-2.8-27.5,2.2-54.7,8.3-81.5c5.3-23.4,10.4-46.8,16-72
			c3.7,4.1,6,6.6,8.3,9.2c-1.4,0.7-2.6,1.3-3.8,2c16.6,10.3,32.8,20.4,49.4,30.6c0,0.1-0.9,1.5-1.7,2.8c4.4-0.8,8.6-1.5,12.9-2.2
			c0.2,0.7,0.5,1.4,0.7,2c-2.6,1.6-5.2,3.2-7.7,4.7c0.2,0.7,0.5,1.5,0.7,2.2c7.7-1.8,15.4-3.6,23.1-5.4c0.2,0.4,0.4,0.9,0.7,1.3
			c-4.3,3.2-8.5,6.5-12.8,9.7c0.4,0.8,0.7,1.6,1.1,2.4c8.3-4.2,16.7-8.5,25-12.7c0.2,0.5,0.3,0.9,0.5,1.4c-3.2,4.1-6.5,8.3-9.7,12.4
			c0.9,0.2,1.8,0.4,2.8,0.6c7.7-5.4,15.4-10.7,23.1-16.1c0.5,0.7,0.9,1.4,1.4,2c-3.4,2.8-6.7,5.7-10.1,8.5c0.4,0.7,0.9,1.5,1.3,2.2
			c8-5.2,16-10.4,24-15.6c0.3,0.5,0.7,1,1,1.5c-2.6,2.6-5.2,5.2-7.8,7.8c0.4,0.6,0.8,1.2,1.2,1.8c5-3.5,10.1-7,16.4-11.3
			c-1.4,3-2.2,4.6-3,6.2c0.5,0.6,1.1,1.1,1.6,1.7c5.8-6,11.6-12,17.8-18.5c1.5,8.9,3.2,17.5,4.3,26.1c4,31.7,7.8,63.5,11.4,95.3
			c0.3,3-0.3,7.2-2.2,9.2c-15.3,17-23.7,37.8-30.2,59.7c-1,3.3-0.9,7-2.2,10.2c-0.7,1.7-3.1,3.1-5,3.8c-4.3,1.6-8.8,2.7-13.2,4
			c0.2,0.9,0.4,1.8,0.6,2.7c5.3-0.8,10.7-1.5,16-2.3c0.4,0.7,0.8,1.4,1.3,2.1c-2,1.4-4,2.8-6,4c-2.5,1.6-5.1,3.1-7.6,4.6
			c0.2,0.7,0.5,1.5,0.7,2.2c3.6-0.9,7.3-1.7,12.1-2.9c0.5,8.4-8.6,5.8-11.8,11c4.9-0.7,8.7-1.3,14-2.1c-2.9,9.1-12.5,6.3-17.1,14.6
			c6.6-1.7,11.6-3,17.1-4.5c0.7,1.5,1.6,3.6,3,6.8c-26.6,3.8-52.6,4.2-78.6,1.9c-0.1,0.8-0.2,1.6-0.4,2.4c6.8,1.5,13.6,4.2,20.4,4.1
			c18.2-0.3,36.3-1.9,54.5-2.8c2.1-0.1,5.3,0.1,6.2,1.5c4.6,7.5,8.7,15.4,13.4,23.9C533.1,829.9,527.2,830.5,521.5,829.8z
			 M675.7,846.7c7.4-6.2,14.8-12.5,23.6-19.9C693.5,837.8,685.7,843.6,675.7,846.7z M733.9,852.1c14.7-13.5,19.6-30.7,18.8-50.4
			c10.5,0,20.3,0,30.8,0c2.5,15.2-3.7,27.8-11.4,40C762.6,856.9,747.3,849.8,733.9,852.1z M811.8,834.9c-9.2,14.2-24.9,10.7-38,15
			c12-13.9,14.9-30.2,12.7-48c11.8-3,22.5-5.7,34.3-8.7C822.9,808.3,820.1,822.2,811.8,834.9z M877.8,623.7
			c-8.5,24.9-6,50.3-4.6,75.9c1,17.9,0.2,35.9,0.2,52.7c-1.5-2.5-3.8-6.4-6.1-10.2c-0.9,0.4-1.8,0.9-2.7,1.3
			c5.1,10.4,9.1,21,4.8,33.3c-0.5-1.8-0.9-3.3-1.7-6.2c-8.2,13.6-4.2,31.6-16.9,42c1.9-5.7,4.2-11.3,5.6-17.1
			c1.3-5.5,3.1-11.4-2.3-17c-0.7,5.8-1.3,10.9-1.9,16c-0.4,0-0.8,0-1.2,0c-0.5-1.4-0.9-2.9-2.2-6.7c-3.1,8.9-5.4,15.8-7.8,22.7
			c0.7,0.3,1.4,0.6,2.1,0.9c0.8-1.3,1.5-2.6,2.6-4.5c2.3,13.7-10.4,24.5-25.2,28.9c1.5-9.6,3.2-20,4.8-30.4c0.1-0.8,0.2-1.8-0.1-2.4
			c-6-10.2,0.4-14.9,7.6-19.7c14.9-10,22.8-24.8,25.1-43c3.3-26.9,5.7-54,9.5-80.9c1.7-11.8-0.3-29.6,10-47.7
			c1.7-2.9,3.3-5.2,4.3-6.7c1.3-2,2.3-3.7,3.2-5.1c-0.4,1.5-0.8,3.2-1.2,5.1C881.1,615.1,879.9,617.5,877.8,623.7z M898.2,579.3
			c-4.3,3.6-6.4,5.4-7.5,6.6c-2.4,2.8-3.6,5.5-4.6,8.9c-1.5,0.8-4.7,3.7-9.6,8.7c-3.4,6.5-8.2,16.9-12,30.3
			c-6.9,24.4-2.8,36.1-8.4,75.2c-2.4,16.5-3,33.7-11.6,48.8c-8.3,14.6-20.9,22.9-35.5,28.6c-25.9,10-52.2,8.4-78.4,1.6
			c-2.7-0.7-5.4-1.1-10-2c7.6,12.4,20.3,9.4,29.1,15.4c-2,19.4-6.9,36.9-23.9,47.9c-1.5,1-3.1,2.5-4.7,2.5
			c-11.4,0.2-22.8,0.1-34.5-1.1c19.1-14.9,26.6-35.5,31.7-57.8c1.4-6,0-9.9-5.8-10.9c7.8,13.8-4.8,22.9-7,35.6
			c-1.5-1.9-2.2-2.8-3.3-4.3c-1.8,2.8-3.4,5.4-5,7.9c-0.3-0.1-0.7-0.3-1-0.4c1.5-4.3,3-8.5,4.5-12.8c-0.6-0.3-1.1-0.7-1.7-1
			c-1.8,2.3-3.5,4.6-6,7.9c5.6-20.3,11.3-39.6,6.8-59.7c-1-0.2-2.1-0.4-3.1-0.5c-2.3,8.2-5.1,16.4-6.8,24.8
			c-4.4,20.8-13.8,39.1-25,56.5c-3.4,5.3-7.9,10.3-9.8,16.2c-2.3,6.8-6.2,6.9-11.7,7.2c-17.4,0.9-34.9,2.4-52.3,3.7
			c-4.3,0.3-8.6,0.7-13.2,1.1c2.5-2,4.6-3.7,6.9-5.5c-6.3-7-12.6-6.9-24.7-0.5c-11.9,6.4-11.9,6.4-20,3.9
			c1.2-8.8,15.1-5.3,14.3-16.6c4.9-0.3,9.9-0.6,17.6-1.1c-3.4-3.9-5-6.8-7.4-8.5c-23.6-16.2-30.7-40-29.9-68
			c1-35.7,18.1-62.6,41.2-86.5c3.9-4.1,8.8-7.2,12.8-11.2c2.3-2.4,3.5-5.8,5.2-8.8c-3.4-0.9-7.5-3.5-10.2-2.3
			c-6.9,3-13.2,7.5-20.8,12.1c-3.1-22.4-6.1-44.8-9.2-67.3c-2.2-16.5-4.5-32.9-6.3-49.4c-0.3-2.4,1.1-5.8,2.8-7.5
			c9.3-9.1,18.9-17.8,28.3-26.8c1.4-1.4,2.9-3.5,3-5.4c0.2-2.6-0.8-5.4-1.3-8.1c-2.2,0.9-4.8,1.3-6.5,2.8
			c-13.1,12.5-26.7,24.2-43,31.7c-25.8,11.9-52.4,14.3-80.2,7.7c-24.4-5.9-44.1-18.6-60.3-38.1c-0.8-1-1.3-2.2-2.3-3.8
			c2.1-0.6,3.8-0.6,5.2-1.5c4.3-2.6,4.5-7.1-0.1-9c-6.6-2.8-13.6-4.6-20.5-6.4c-1.2-0.3-3.4,1-4.3,2.2c-7.1,8.8-17.2,11-27.1,13.3
			c-4.9,1.2-6.9-2-6.6-7.1c0.9-13,8.5-21,18.1-27.8c2-1.4,3.9-3.2,7.3-6c-18.7-6.1-27.8,4.7-36.9,16.5c0.4-14.2,11.2-24.5,25.6-25.5
			c13-0.9,24.9,2.9,35.9,9.7c11.9,7.3,22.9,16.5,35.1,23.3c23.4,13.1,48,15.1,73.3,5.6c20.1-7.6,34.3-22.6,47-39.6
			c2.3-3.1,5.4-5.6,7.6-8.8c1-1.4,0.7-3.8,1-5.8c-1.8-0.1-4-0.9-5.4-0.1c-3.5,1.9-6.7,4.6-9.8,6.9c-5-14-10-27.6-15-41.6
			c2.6-1.8,7.2-4.9,12.2-8.3c-1.7-1.4-2.3-2.1-2.4-2c-25.5,13.7-53.4,7.9-80.2,10.7c-5.8,0.6-11.6,0.1-17.5-1.7
			c12.7-1.6,25.5-3.2,38.2-4.8c0.1-0.6,0-1.1-0.2-1.6c-1.9-4.8-17-2.7-18-2.5c-9.1-2.7-17.1-5-23.9-6.9h38.7
			c27.9-2.5,55.4-7.1,82.3-15c30.7-9.1,59.1-23.3,84.5-42.9c10.3-7.9,20.3-16.1,30.4-24.2c-0.7,7.5-3.9,14-10,18.1
			c-14.5,9.9-22.8,14.2-46,29.9c-0.9,0.6-11.1,7.6-17,13.3c21.9-11,42.6-24.6,62.5-40.6c-5,9.7-11.5,16.3-19.3,21.7
			c-14.9,10.3-30.6,18.8-47.1,25.4c0,0,0,0,0,0c0.8,1.6,4.5,0.5,11.2,1.6c6.9,1.1,12.2,3.7,15.6,5.7c7.5,2.3,15,4.6,22.5,6.9
			c2-0.7,4-1.3,6-1.9c-4.2,28.4-4.5,52.4-3.6,70.9c0.7,14.7,4.9,42.7,14.4,98.7c4.8,28.2,9.8,56.5,17.2,84
			c8.3,30.7,21.3,59.5,45.3,80.9c20.8,18.6,44.7,27.4,71.6,20.3c16-4.3,27.6-16.8,33.1-32.9c6.3-18.5,9.7-38.1,14.7-57.2
			c7.7-29.1,19.7-55,47.6-69.7c22.2-9.6,27.9-11.2,28.2-10.5C909.2,570.9,906.1,572.8,898.2,579.3z"/>
		<path d="M544.7,385.9c14-3,27.6-7.1,40.6-12.3c-0.7-1.4,1.1-3.8,4-6.6c-14.9,7.5-30.3,13.7-46.5,18.5
			C543.5,385.9,544.2,386,544.7,385.9z"/>
		<path class="st1" d="M881,602.1c0.8-0.5,2.7-1.4,3.4-0.8c0.7,0.7-0.2,2.7-0.5,3.5c-2.5,6-3.7,12.5-5.8,18.7
			c-8.5,24.9-6,50.3-4.6,75.9c1,17.9,0.2,35.9,0.2,52.7c-1.5-2.5-3.8-6.4-6.1-10.2c-0.9,0.4-1.8,0.9-2.7,1.3
			c5.1,10.4,9.1,21,4.8,33.3c-0.5-1.8-0.9-3.3-1.7-6.2c-8.2,13.6-4.2,31.6-16.9,42c1.9-5.7,4.2-11.3,5.6-17.1
			c1.3-5.5,3.1-11.4-2.3-17c-0.7,5.8-1.3,10.9-1.9,16c-0.4,0-0.8,0-1.2,0c-0.5-1.4-0.9-2.9-2.2-6.7c-3.1,8.9-5.4,15.8-7.8,22.7
			c0.7,0.3,1.4,0.6,2.1,0.9c0.8-1.3,1.5-2.6,2.6-4.5c2.3,13.7-10.4,24.5-25.2,28.9c1.5-9.6,3.2-20,4.8-30.4c0.1-0.8,0.2-1.8-0.1-2.4
			c-6-10.2,0.4-14.9,7.6-19.7c14.9-10,22.8-24.8,25.1-43c3.3-26.9,5.7-54,9.5-80.9c2.3-16.1,6.7-31.8,10-47.7c0.5-2.4,0.6-5,0.9-7.5
			C879.4,603.3,880.2,602.7,881,602.1z"/>
		<path class="st1" d="M716.8,785c4.4,3.3,10.2,6.9,17.3,10.1c5.5,2.5,10.6,4.2,15,5.3c-2,19.4-6.9,36.9-23.9,47.9
			c-1.5,1-3.1,2.5-4.7,2.5c-11.4,0.2-22.8,0.1-34.5-1.1c9.7-8,33.1-29.8,31.7-57.8C717.6,789.7,717.3,787.4,716.8,785z"/>
		<path class="st2" d="M714.9,707.6c-3.3-2.9-5-6.2-5.8-8.3c3.9-2,7.8-4.8,11.9-5.6c2.6-0.5,5.7,1.9,8.2,3.5c1,0.6,1.3,2.7,1.3,4.1
			c-0.2,4-0.7,8-1.1,12C727.1,713.3,720.6,712.7,714.9,707.6z"/>
		<path class="st2" d="M811.4,694.2c-0.6,0.7-2,2.1-3.8,4.5c-2,2.7-3.4,5.1-4.3,6.7c-0.1-1.6-0.2-4-0.4-7c-0.4-4.1-0.6-4.6-0.4-6.3
			c0.1-1.2,0.6-5.1,3.5-7.9c0.9-0.9,1.9-1.4,3.2-2.2c2-1.1,3.7-1.7,4.7-2.1c1.4-0.5,2.6-0.8,3.4-1
			C816.1,687.4,813.6,691.7,811.4,694.2z"/>
		<g>
			<g>
				<path d="M409.3,743.7c-0.9,0-1.9-0.1-3-0.3c-9.6-2-19.1-3.9-28.7-5.9c-22.3-4.6-45.4-9.3-68.1-14.2
					c-23.9-5.2-48.4-11.1-72.6-17.4c-20.4-5.3-40.4-11.4-59.1-17.2c-19.8-6.1-41.1-13.7-65.1-23.3c-5.6-2.2-7.9-6.5-6.5-12.4
					l5.4-23.3c6-25.9,12.1-52.6,18.1-78.9c2.2-9.5,4.2-19.1,6-28.7c0.3-1.7,0.5-3.6,0.6-5.6c0.1-2,0.3-4,0.6-6.2
					c1-6.5,2.2-13.1,3.4-19.5l1-5.7c0.6-3.2,1.1-6.4,2-9.7c2.6-10.2,9.9-16.3,19.6-16.3c1.6,0,3.3,0.2,5,0.5c6,1.2,12,2.7,17.8,4.2
					c1.4,0.4,2.8,0.7,4.1,1.1c15,3.8,30,7.6,44.9,11.4c15.2,3.9,30.4,7.7,45.6,11.6c5.3,1.3,10.7,2.6,15.9,3.9
					c2.4,0.6,4.9,1.2,7.3,1.8l7,1.7l-0.1,0.4l15.8,4c19.5,4.9,39,9.9,58.5,14.8c12.3,3.1,24.7,6.3,37,9.5l14.8,3.8
					c0.6,0.2,1.3,0.3,1.9,0.5c9.2,2.8,13.7,9.9,12.2,19.3c-0.9,5.4-1.8,10.8-2.7,16c-0.4,2.1-0.7,4.3-1.1,6.4l-1,5.7
					c-2.2,13.1-4.5,26.2-6.7,39.4l-2.7,15.7c-1.2,7.3-2.5,14.6-3.7,21.9c-1.3,7.5-2.6,15.1-3.8,22.6c-1.5,9.1-3.1,18.2-4.6,27.2
					c-1.9,10.9-3.7,21.7-5.6,32.6C417.4,742.8,411.7,743.7,409.3,743.7z M134.9,653.7c24.5,9.3,44.9,16.2,64.4,21.8
					c25.3,7.3,46.5,13,66.8,18.1c38.5,9.7,78.1,17.7,116.5,25.5c-30.2-38.9-53.5-74.7-72.1-111.1l-0.7,0.3c-10,5.2-20,10.4-30,15.7
					c-1.5,0.8-3.3,1.8-5.8,1.8c-4,0-6.4-2.6-7.7-4c-7.8-8.5-15.6-17-23.3-25.5c-1.3-1.4-2.5-2.8-3.8-4.2
					c-33.7,21-68.7,40.8-102.5,60c-0.9,0.5-1.8,1-2.6,1.5C134.4,653.6,134.6,653.7,134.9,653.7z M325.9,600
					c26,44.9,50.8,81.7,77.1,114.4l27.1-159C404.3,564.7,346.7,589.4,325.9,600z M158.9,494.4c-1.5,6.6-3.1,13.4-4.4,20.1
					c-1.6,8.2-3.1,16.5-4.5,24.6c-2.1,11.9-4.3,24.2-6.8,36.2c-3.6,17.2-7.5,34.6-11.3,51.4c-0.6,2.7-1.2,5.4-1.8,8.1l97.9-56.1
					c-2.5-3.1-4.9-6.1-7.4-9.2c-9.7-12-19.7-24.5-29.2-37.1c-9.5-12.5-18.8-25.5-27.8-38.1c-1.2-1.6-2.3-3.3-3.5-4.9
					C159.6,491.1,159.3,492.8,158.9,494.4z M175.8,480.6c12.6,18.1,25.8,35.8,39.1,52.8c18.9,24,39.5,48,61.2,71.5
					c5.1-2.8,10.3-5.5,16-8.5c39.9-20.7,81.3-39.2,123.3-55c-3.3-0.7-6.7-1.5-10.1-2.4c-17.3-4.4-34.6-8.8-51.9-13.1l-19-4.8
					l-113.3-28.8l-8.7-2.2c-8.3-2.1-17-4.3-25.4-6.5c-3.1-0.8-6.3-1.7-9.3-2.5C177,481,176.4,480.8,175.8,480.6z"/>
			</g>
			<path class="st3" d="M117.4,654.7c41.7-23.7,83-46.8,123.3-72.1c2.6,3,5.2,5.9,7.8,8.8c7.7,8.5,15.5,17,23.3,25.5
				c1.9,2.1,2.2,2,4.7,0.7c11.9-6.3,23.9-12.5,35.9-18.7c0.4-0.2,0.7-0.3,1.3-0.6c23.4,47.2,53.3,90.3,86.3,131.2
				c-0.1,0.1-0.2,0.3-0.3,0.4c-3.4-0.6-6.8-1.3-10.1-1.9c-41.9-8.4-83.8-16.8-125.3-27.3c-22.4-5.7-44.8-11.8-67-18.2
				c-22-6.3-43.6-13.9-64.9-22C127.5,658.7,122.7,656.7,117.4,654.7z"/>
			<path class="st3" d="M160.7,471.4c3.4-0.9,6.6-0.5,9.7,0.3c6.1,1.6,12.2,3.4,18.4,5c11.4,2.9,22.8,5.8,34.1,8.7
				c37.8,9.6,75.6,19.2,113.3,28.8c23.6,6,47.2,12,70.9,18c6.4,1.6,12.9,2.9,19.3,4.5c2.5,0.6,5,1.4,7.4,2.3
				c1.2,0.4,2.2,1.2,3.8,2.1c-4.6,1.7-8.6,3.2-12.7,4.7c-44.4,16.4-87.5,35.5-129.5,57.2c-6.3,3.3-12.5,6.6-18.8,10
				c-1.5,0.8-2.4,0.7-3.6-0.6c-22.3-24-43.6-48.7-63.9-74.4c-16.3-20.7-31.9-42-46.8-63.8C161.9,473.3,161.4,472.4,160.7,471.4z"/>
			<path class="st3" d="M315.9,597.3c14.1-8.9,108.1-49,123.2-52.5c-10.6,62.3-21.2,124.4-31.7,186.4
				C372.3,689.6,342.9,644.4,315.9,597.3z"/>
			<path class="st3" d="M238.8,580.9c-39.5,22.6-79.4,45.5-119.6,68.5c0.2-0.8,0.4-1.5,0.5-2.2c5.5-24.4,11.2-48.8,16.3-73.3
				c4.2-20.2,7.4-40.5,11.3-60.7c1.9-9.7,4.2-19.3,6.4-28.9c0.6-2.6,1.1-5.2,1.9-7.7c0.4-1.2,1.2-2.2,1.7-3.2
				c13.3,18.4,26.1,36.9,39.7,54.8C210.7,546.1,225.1,563.5,238.8,580.9z"/>
		</g>
		<g>
			<path d="M502,75.4c-4.1-4.6,7.1-24.7,23.1-38.5c20.3-17.5,43.2-25.9,67.2-24.5c13.7,0.8,26.8,6.2,39.8,10.5c5,1.7,9.4,3,15,1.7
				c23.3-5.1,45.7-2.6,67.4,3.8c16.9,5,32.8,11.9,45.2,25.4c0.4,0.4,1.2,0.4,2.3,0.7c0.1-3.6,0-6.8,0.2-10.1
				c0.4-11.2,7.7-18.6,17.7-17.1c6.1,0.9,10.3-0.9,14.8-6.1c8.8-10.3,21.1-8.5,25.8,3c1.9,4.6,5.8,4.9,10.3,3.4
				c4-1.3,8.2-2.9,12.2-2.9c10.3,0,12.8,3.1,12.9,14.1c5.4,0.7,11,0.6,16,2.2c6.4,2,6.5,8,4.6,14.4c13,9.2,13,9.2,11.1,16.1
				c11.6,8,10.7,14.4,2.3,21.9c3.5,9.1,2.4,13.1-4.9,17.8c1,9.8,0.3,10.7-10.4,15.8c1,5.2,2.3,10.2,2.9,15.4
				c1.2,11.7-4.5,18.7-15.3,18.2c-4.3-0.2-7-0.2-10.8,3.9c-2.5,2.7-8.5,1.4-13.7,2.1c-0.4,1.6-0.4,5-1.8,7.5
				c-3.4,6-8.7,9.1-14.9,8.2c-4.5-0.7-8.9-1.8-13.2-3.3c-4-1.5-7.8-3.7-12.5-6c-1.8,3.7-3.5,7.2-5.2,10.6
				c-11.4,22.1-25.9,41.5-44.6,57.2c-1.6,1.4-3.1,4.1-3.4,6.3c-2.2,19.4-8.5,37.5-19.7,53.9c-14.8,21.5-48.6,35-59.3,25.9
				c-9.4-8,6.7-27,10.5-67.4c1-10.7,6.6-81.5-27.6-112.7c-8.4-7.6-39.7-31.6-44-42.4c-0.3-0.8-1.7-4.4-4.5-5.1c-3.7-1-6.1,4-9.6,3.9
				c-5.3-0.2-6.1-11.7-12.6-20.4c-10.2-13.7-30.4-14.7-35.3-15C517.9,66.7,505.7,79.5,502,75.4z M708.2,244
				c7.1-5.7,14.2-11.4,21.2-17.2c0.5-0.4,0.5-1.8,0.6-2.7c0.4-13.8,0.7-27.7,1.1-41.2c-1.5-0.2-1.8-0.3-1.9-0.2
				c-14.1,10.7-28.3,21.4-42.4,32.3c-0.9,0.7-1.6,2.4-1.5,3.5c0.7,11.2,1.6,22.4,2.5,34.6c9.2-6.3,17.9-12.3,26.6-18.3
				c0.3,0.4,0.7,0.9,1,1.3c-2.4,2.7-4.7,5.5-7.1,8.3c-6.3,4-12.7,8-18.9,12.2c-1.4,0.9-3,2.6-3.2,4.1c-0.9,5-1.2,10.1-1.9,16.3
				c8.3-6,15.9-11.4,25-18c-5,10.1-11.5,15.4-19,18.4c-8.7,3.5-10.2,10.6-10.9,19.2c10.8-6.7,21.6-13.5,31.3-21.8
				c6.4-5.5,14.5-10.5,16.2-20.6c1.2-7.1,2.1-14.2,3.3-22.5c-13.2,12.6-24.8,25.6-40.9,30.3c2-2.5,4.4-4.3,6.7-6.3
				C700,251.7,704.1,247.8,708.2,244z M801.4,41.5c-3.1-1.2-4.9-2.3-6.8-2.6c-2.4-0.4-5-0.2-7.5-0.4c-3.7-0.2-8.5-2.2-10.8-0.3
				c-2.7,2.2-3.3,7.8-4.5,11.9c-0.9,2.9-1.5,6-1.8,9c-0.2,2.6-0.4,5.8,0.7,7.7c2,3.4,5.1,5.9,7.6,8.9c11.6,13.5,20.1,29.1,22.4,48.3
				c1.3,11.2,0.9,22.8,1.3,35.2c10.5,6.1,10.5,6.1,16.1-1.4c-0.3,3.5-0.7,6.9-1.1,11.3c3.2-0.3,6.3-0.6,9.7-1
				c0.2-6.1-3.3-11.1,4.1-15.6c6.6-4,9,4.8,14.8,1.4c-0.8-2.8-1.7-5.6-2.6-8.4c8.2,2.2,15.1,6,22.7,2.2c2.4-11.3-5.4-20.7-1.3-30.8
				c4.9-0.8,8.5-1.4,13.3-2.2c-2.3-3.2-3.4-4.7-4.4-6.1c3.7-3.6,7-6.8,10.7-10.4c-5.2-6-0.9-10.1,4.6-14.6c-4.4-3.2-7.8-7.5-12-8.3
				c-4-0.8-8.9,2.1-13.5,3.3c-0.1-0.8-0.3-1.7-0.4-2.5c2.8-1.4,5.8-2.6,8.4-4.4c2.1-1.5,3.7-3.8,5.5-5.8c-2.3-1.1-4.5-2.7-7-3.1
				c-2.8-0.4-5.8,0.3-8.7,0.6c-0.2-0.6-0.3-1.1-0.5-1.7c2.9-2.6,5.8-5.1,8.9-7.8c-1.1-7.2-7.5-8.2-11-5.5
				c-7.1,5.3-10.1-0.7-13.2-1.5c-0.5-5.2-0.9-9.3-1.3-13.4c-3.9,1.1-8.2,1.4-11.6,3.7c-4.6,3.1-8,3.4-10.7-1.1
				c-2.2,2.3-3.9,4.1-6.7,7.1c-0.7-4.6-1.2-7.9-1.8-11.1c-1.7-8.4-3.9-9.3-11.1-4.8C801.9,32,801.7,36.5,801.4,41.5z M718.5,123.2
				c-8.5-13.3-17.2-27.3-26.3-40.9c-1-1.5-4.6-2-6.5-1.2c-17.3,7.1-33.1,17.3-46.6,31.6c7.4,10.7,14.7,21.4,22,32.1
				c5.6-3.7,11.5-7.7,17.3-11.6c0.2,0.5,0.4,0.9,0.6,1.4c-5.5,4.7-11,9.3-16.5,14c0.4,0.6,0.7,1.2,1.1,1.7c7.7-4.5,15.3-9,23-13.5
				c0.3,0.6,0.5,1.2,0.8,1.8c-6.1,4.2-12.1,8.5-18.2,12.5c-3.7,2.4-3.8,4.6-1.6,7.3C684.3,146.9,700.7,135.5,718.5,123.2z
				 M635.4,108.3c16-13.6,31.4-26.8,51.3-33.2c-12.1-12.8-24.6-22.4-38.6-30c-1.8-1-4.3-1.8-6.1-1.1c-17.2,6.2-32.7,15.4-43.8,31.5
				c10.9,8.5,21.5,16.8,31.4,24.6c6.7-7.6,12.9-14.6,19.2-21.6c0.5,0.5,0.9,1,1.4,1.4c-6.3,7.6-12.7,15.3-19.1,23
				C632.9,105.1,634,106.5,635.4,108.3z M720.2,127.4c-17.7,12.3-34,23.6-49.7,34.5c5,16.6,9.8,32.1,14.7,48.5
				c14.8-11.2,29.6-22.5,45.6-34.6C727.5,160.7,724.1,145.2,720.2,127.4z M638.2,40.2c-17.2-9.5-33.6-16.3-53.1-4.8
				c-10.6,6.3-21.8,11.9-29.3,24.2c2.6,1,4.6,1.8,6.6,2.6c8.3,3,16.7,5.5,24.7,9.1c3.8,1.7,5.9,1.4,9-2.2
				C607.8,55.6,621.2,45.7,638.2,40.2z M714.2,94.7c6,11.6,11.5,22.3,17.1,33.1c14.9-11,28.8-24.2,47.7-28
				c-2.7-4.9-4.4-9.2-7.1-12.5c-2.7-3.4-6-8.1-9.7-8.5C745.2,77.5,729.5,83.9,714.2,94.7z M733.6,132.3c3.3,11.9,6.4,23.1,9.6,34.7
				c14.2-11.5,28.4-24.1,40.8-39c3.5-4.1,4-7.8,1.6-12.3c-1.9-3.7-2.9-8-4.3-11.9C762.9,108.5,748.3,121.5,733.6,132.3z
				 M788.4,128.6c-5.1,6.2-9.3,12.4-14.5,17.3c-9.2,8.7-19.1,16.5-28.7,24.8c-1.1,1-2.5,2.8-2.4,4c0.6,7.3,1.5,14.5,2.4,21.8
				c0.6,0.3,1.2,0.5,1.9,0.8c11.9-13.6,23.8-27.1,36.5-41.7c-1.1,3.7-1.5,6.3-2.6,8.7c-7.2,16.4-18,29.6-31.5,40.5
				c-1.8,1.5-3.2,3.6-4.8,5.4c0.5,0.5,0.9,0.9,1.4,1.4c4.4-3,8.9-6,13.3-9c-2.5,4-5.5,7-8.8,9.6c-6.2,4.9-6.2,4.8-5.4,10.3
				C766.9,207.3,795.8,151.8,788.4,128.6z M755.3,66.9c-13.4-21.2-43-17.3-66.1-3.6c1.6,1.9,3.4,3.5,4.6,5.5
				c6,9.7,13.1,14.9,24.4,5.5c0.9-0.7,2.1-0.9,3.2-1.1C732.7,71.1,744,69,755.3,66.9z M544.8,59.2c0.3,0.5,0.6,1.1,0.9,1.6
				c6.6-6.8,12.7-14.5,20.1-20.1c7.8-5.9,16.7-9.6,26-14.8c-39.3,5.3-66.3,21.3-70,42.1c2.6-1.9,4.9-4.2,6.8-6.7
				c2.9-3.7,5.6-7.6,8.3-11.5c0.5,0.4,1.1,0.9,1.6,1.3c-2,4.1-4,8.3-6.1,12.4c0.4,0.5,0.8,1,1.2,1.6c1.9-1.5,4-2.8,5.6-4.6
				c2.8-3.2,5.2-6.8,7.8-10.3c0.5,0.4,1,0.8,1.5,1.2C547.3,54.1,546.1,56.6,544.8,59.2z M724.5,46.7c-18.7-6.5-37.6-11.4-60.6-5.1
				c8.5,6.8,15.5,12.6,22.7,18.4C698.2,51.1,711,48,724.5,46.7z M670.7,311.3c16.1,3.2,42.2-12,49.2-38.5c-0.4,0.1-0.9,0-1.2,0.2
				c-0.7,0.6-1.4,1.3-2,2c-10.1,11-21.7,19.7-35,24.4C675.8,301.6,672,304.4,670.7,311.3z M758.6,73.7c-13.9-5.1-39.5,0.2-51.3,11.1
				c1.5,5.4,3.4,7.5,9.3,3.1c5.5-4.2,12.1-7.2,18.5-9.2C743.2,76.1,751.5,75.1,758.6,73.7z"/>
			<path class="st4" d="M801.4,41.5c0.2-5,0.5-9.5,0.7-14.1c7.2-4.6,9.5-3.7,11.1,4.8c0.6,3.2,1.1,6.5,1.8,11.1
				c2.8-3,4.5-4.8,6.7-7.1c2.8,4.4,6.1,4.2,10.7,1.1c3.3-2.3,7.7-2.5,11.6-3.7c0.4,4.1,0.8,8.2,1.3,13.4c3.2,0.8,6.2,6.8,13.2,1.5
				c3.5-2.6,9.8-1.7,11,5.5c-3,2.6-5.9,5.2-8.9,7.8c0.2,0.6,0.3,1.1,0.5,1.7c2.9-0.2,5.9-1,8.7-0.6c2.5,0.4,4.7,2,7,3.1
				c-1.8,2-3.4,4.3-5.5,5.8c-2.6,1.8-5.6,3-8.4,4.4c0.1,0.8,0.3,1.7,0.4,2.5c4.5-1.2,9.4-4.1,13.5-3.3c4.2,0.8,7.6,5,12,8.3
				c-5.5,4.4-9.8,8.6-4.6,14.6c-3.7,3.6-7,6.8-10.7,10.4c1,1.4,2.1,2.9,4.4,6.1c-4.8,0.8-8.3,1.4-13.3,2.2
				c-4.2,10.1,3.6,19.5,1.3,30.8c-7.6,3.8-14.5-0.1-22.7-2.2c0.9,2.8,1.7,5.6,2.6,8.4c-5.8,3.4-8.2-5.4-14.8-1.4
				c-7.4,4.5-3.9,9.5-4.1,15.6c-3.4,0.3-6.5,0.7-9.7,1c0.4-4.4,0.7-7.9,1.1-11.3c-5.6,7.5-5.6,7.5-16.1,1.4
				c-0.4-12.4,0.1-24-1.3-35.2c-2.3-19.1-10.8-34.8-22.4-48.3c-2.5-3-5.6-5.5-7.6-8.9c-1.1-1.9-0.9-5.1-0.7-7.7c0.2-3,0.9-6.1,1.8-9
				c1.2-4.2,1.8-9.7,4.5-11.9c2.3-1.9,7.1,0.1,10.8,0.3c2.5,0.1,5.1,0,7.5,0.4C796.6,39.2,798.3,40.3,801.4,41.5z M822,128.4
				c-0.6,0.6-1.2,1.2-1.9,1.8c1.4,1.9,2.9,3.6,4,5.6c1,1.8,1.5,3.9,2.3,5.8c-2.3,0.6-4.5,1.6-6.8,1.8c-2.1,0.2-4.3-0.4-6.4-0.7
				c-0.2,0.7-0.3,1.4-0.5,2.1c4.3,3.4,9.2,5.8,15,2.8c2-1,4.4-5.1,4.3-7.4C831.8,133.6,827.5,130.2,822,128.4z M828.7,78.4
				c2.7,4.7,6.5,2.2,9.6,0.6c5-2.6,9.7-6.1,9.7-13c0-4.9-1.5-6.6-6.3-7.5C846.1,68.2,844.3,71,828.7,78.4z M819.5,105.1
				c-1,0.6-2,1.1-2.9,1.7c2,2.8,3.9,5.6,5.9,8.4c-0.9,0.5-1.8,1-2.8,1.5c-2.9-0.8-5.7-1.6-8.6-2.4c0.7,0,1.4,0.1,2.1,0.1
				c0.2,4.1,0.4,8.3,0.5,11.1c3.1-1.7,5.7-2.4,7.4-4.2c1.8-1.9,4.2-5.3,3.8-7C823.9,110.8,821.3,108.1,819.5,105.1z M851.2,127.4
				c-2,0.1-2.9-0.1-3.7,0.2c-1.7,0.6-3.3,1.5-5,2.3c1.5,1.2,3,3.5,4.6,3.4c2.7-0.2,5.7-1.5,7.8-3.4c0.9-0.8,0.7-5-0.3-6.4
				c-2.1-2.8-5.1-4.8-7.7-7.1c-0.4,0.6-0.9,1.1-1.3,1.7C847.3,121,849,123.8,851.2,127.4z M853.3,106.9c-0.3,0.8-0.6,1.7-0.9,2.5
				c2,1.9,4,3.8,5.2,5c4.6-3.2,7.8-5.4,11-7.6c-0.1-0.5-0.2-1.1-0.3-1.6C863.3,105.8,858.3,106.4,853.3,106.9z M816.5,66.1
				c0.4,0.8,0.8,1.6,1.2,2.4c4.9-3,9.9-6,14.8-9c-0.3-0.6-0.6-1.3-0.9-1.9C825.8,58.6,820.3,60.5,816.5,66.1z M785.1,53.1
				c-7.2,5.8-8.4,11.4-4.2,18.1C782.4,65,783.6,59.8,785.1,53.1z M856.4,94.2c-1.2-7.2-6.2-6.9-11.6-5.7
				C848.6,90.5,852.5,92.3,856.4,94.2z M818.5,88.9c-0.6,1-1.1,1.9-1.7,2.9c2.9,2.3,5.8,4.5,8.6,6.8c0.7-1,1.4-2,2.1-3
				C824.5,93.4,821.5,91.2,818.5,88.9z M877.1,87.7c-2.7-6.1-5.5-6.2-13.2-1C868.6,87.1,872.3,87.4,877.1,87.7z M842.5,39.8
				c-0.3-0.7-0.6-1.4-0.8-2c-4.8,0-8.2,2.2-8.5,8.9C836.3,44.4,839.4,42.1,842.5,39.8z"/>
			<g>
				<path class="st5" d="M718.5,123.2c-17.9,12.4-34.2,23.7-50.9,35.2c-2.2-2.7-2.1-4.9,1.6-7.3c6.2-4,12.2-8.3,18.2-12.5
					c-0.3-0.6-0.5-1.2-0.8-1.8c-7.7,4.5-15.3,9-23,13.5c-0.4-0.6-0.7-1.2-1.1-1.7c5.5-4.7,11-9.3,16.5-14c-0.2-0.5-0.4-0.9-0.6-1.4
					c-5.9,3.9-11.7,7.9-17.3,11.6c-7.3-10.7-14.7-21.3-22-32.1c13.6-14.3,29.3-24.5,46.6-31.6c1.9-0.8,5.5-0.2,6.5,1.2
					C701.3,95.9,710.1,109.9,718.5,123.2z"/>
				<path class="st5" d="M635.4,108.3c-1.5-1.8-2.5-3.2-4.3-5.4c6.4-7.7,12.8-15.4,19.1-23c-0.5-0.5-0.9-1-1.4-1.4
					c-6.2,7-12.5,14.1-19.2,21.6c-9.9-7.8-20.5-16.1-31.4-24.6c11-16.1,26.6-25.3,43.8-31.5c1.8-0.7,4.3,0.2,6.1,1.1
					c14,7.6,26.6,17.2,38.6,30C666.8,81.5,651.4,94.7,635.4,108.3z"/>
				<path class="st5" d="M720.2,127.4c3.9,17.7,7.3,33.3,10.6,48.3c-16.1,12.2-30.8,23.4-45.6,34.6c-5-16.3-9.7-31.9-14.7-48.5
					C686.1,151,702.4,139.7,720.2,127.4z"/>
				<path class="st5" d="M708.3,244.2c2.4-2.7,4.7-5.5,7.1-8.2c-0.3-0.4-0.7-0.9-1-1.3c-8.7,6-17.5,12-26.6,18.3
					c-0.9-12.2-1.8-23.4-2.5-34.6c-0.1-1.1,0.7-2.9,1.5-3.5c14.1-10.8,28.2-21.6,42.4-32.3c0.1-0.1,0.4,0,1.9,0.2
					c-0.4,13.5-0.7,27.4-1.1,41.2c0,0.9-0.1,2.3-0.6,2.7c-7,5.8-14.1,11.5-21.2,17.2C708.2,244,708.3,244.2,708.3,244.2z"/>
				<path class="st5" d="M638.2,40.2c-17,5.6-30.5,15.5-41.9,28.9c-3.1,3.7-5.2,3.9-9,2.2c-8-3.6-16.5-6.1-24.7-9.1
					c-2-0.7-3.9-1.5-6.6-2.6c7.5-12.3,18.6-17.9,29.3-24.2C604.6,23.8,621.1,30.7,638.2,40.2z"/>
				<path class="st5" d="M708.2,244c-4.1,3.8-8.2,7.7-12.4,11.4c-2.3,2-4.7,3.8-6.7,6.3c16.1-4.7,27.7-17.7,40.9-30.3
					c-1.2,8.3-2.2,15.4-3.3,22.5c-1.6,10.1-9.7,15.1-16.2,20.6c-9.7,8.3-20.4,15.1-31.3,21.8c0.7-8.5,2.2-15.7,10.9-19.2
					c7.5-3,14-8.2,19-18.4c-9.1,6.6-16.6,12-25,18c0.7-6.2,1-11.3,1.9-16.3c0.3-1.5,1.9-3.2,3.2-4.1c6.2-4.2,12.6-8.1,18.9-12.2
					C708.3,244.2,708.2,244,708.2,244z"/>
				<path class="st5" d="M544.8,59.2c1.3-2.6,2.5-5.2,3.8-7.7c-0.5-0.4-1-0.8-1.5-1.2c-2.6,3.4-5,7-7.8,10.3
					c-1.6,1.8-3.7,3.1-5.6,4.6c-0.4-0.5-0.8-1-1.2-1.6c2-4.1,4-8.3,6.1-12.4c-0.5-0.4-1.1-0.9-1.6-1.3c-2.8,3.8-5.4,7.7-8.3,11.5
					c-2,2.5-4.2,4.8-6.8,6.7c3.7-20.8,30.7-36.8,70-42.1c-9.3,5.1-18.3,8.9-26,14.8c-7.4,5.6-13.5,13.3-20.1,20.1
					C545.4,60.3,545.1,59.8,544.8,59.2z"/>
				<path class="st5" d="M670.7,311.3c1.3-6.9,5.1-9.7,10.9-11.8c13.4-4.7,24.9-13.4,35-24.4c0.6-0.7,1.3-1.4,2-2
					c0.3-0.2,0.8-0.2,1.2-0.2C712.9,299.3,686.8,314.5,670.7,311.3z"/>
			</g>
			<g>
				<path class="st6" d="M714.2,94.7c15.4-10.8,31.1-17.2,47.9-15.8c3.7,0.3,7,5,9.7,8.5c2.7,3.3,4.4,7.6,7.1,12.5
					c-18.9,3.8-32.8,17-47.7,28C725.6,117,720.2,106.4,714.2,94.7z"/>
				<path class="st6" d="M733.6,132.3c14.7-10.8,29.3-23.8,47.8-28.5c1.4,3.9,2.3,8.3,4.3,11.9c2.4,4.5,1.8,8.1-1.6,12.3
					c-12.5,14.9-26.6,27.5-40.8,39C740,155.4,736.9,144.2,733.6,132.3z"/>
				<path class="st6" d="M788.4,128.6c7.4,23.1-21.5,78.7-43.3,93.9c-0.9-5.5-0.8-5.4,5.4-10.3c3.3-2.6,6.3-5.6,8.8-9.6
					c-4.4,3-8.9,6-13.3,9c-0.5-0.5-0.9-0.9-1.4-1.4c1.6-1.8,3-4,4.8-5.4c13.5-10.9,24.4-24.1,31.5-40.5c1.1-2.4,1.5-5.1,2.6-8.7
					c-12.7,14.5-24.6,28.1-36.5,41.7c-0.6-0.3-1.2-0.5-1.9-0.8c-0.8-7.3-1.8-14.5-2.4-21.8c-0.1-1.2,1.3-3,2.4-4
					c9.5-8.3,19.4-16.1,28.7-24.8C779.1,141,783.3,134.8,788.4,128.6z"/>
				<path class="st6" d="M755.3,66.9c-11.3,2.1-22.6,4.1-33.8,6.2c-1.1,0.2-2.4,0.4-3.2,1.1c-11.3,9.4-18.4,4.2-24.4-5.5
					c-1.3-2-3-3.6-4.6-5.5C712.3,49.6,741.9,45.7,755.3,66.9z"/>
				<path class="st6" d="M724.5,46.7C711,48,698.2,51.1,686.7,60c-7.2-5.8-14.2-11.5-22.7-18.4C686.9,35.3,705.9,40.3,724.5,46.7z"
					/>
				<path class="st6" d="M758.6,73.7c-7.1,1.4-15.5,2.4-23.5,4.9c-6.4,2-13,5-18.5,9.2c-5.9,4.5-7.8,2.3-9.3-3.1
					C719.2,73.9,744.8,68.6,758.6,73.7z"/>
			</g>
			<path d="M822,128.4c5.5,1.7,9.8,5.2,10.1,11.9c0.1,2.3-2.3,6.3-4.3,7.4c-5.8,2.9-10.7,0.6-15-2.8c0.2-0.7,0.3-1.4,0.5-2.1
				c2.1,0.3,4.2,0.9,6.4,0.7c2.2-0.2,4.5-1.2,6.8-1.8c-0.7-2-1.3-4.1-2.3-5.8c-1.1-2-2.7-3.8-4-5.6C820.8,129.6,821.4,129,822,128.4
				z"/>
			<path d="M828.7,78.4c15.6-7.5,17.4-10.3,13-19.9c4.9,0.9,6.4,2.6,6.3,7.5c-0.1,7-4.7,10.4-9.7,13
				C835.3,80.7,831.4,83.1,828.7,78.4z"/>
			<path d="M819.5,105.1c1.9,3,4.5,5.7,5.3,9.1c0.4,1.7-2,5.1-3.8,7c-1.7,1.8-4.3,2.5-7.4,4.2c-0.1-2.8-0.3-6.9-0.5-11.1
				c-0.7,0-1.4-0.1-2.1-0.1c2.9,0.8,5.7,1.6,8.6,2.4c0.9-0.5,1.8-1,2.8-1.5c-2-2.8-3.9-5.6-5.9-8.4
				C817.5,106.2,818.5,105.6,819.5,105.1z"/>
			<path d="M851.2,127.4c-2.2-3.6-3.9-6.4-5.6-9.3c0.4-0.6,0.9-1.1,1.3-1.7c2.6,2.3,5.6,4.3,7.7,7.1c1,1.4,1.2,5.6,0.3,6.4
				c-2.1,1.9-5.2,3.1-7.8,3.4c-1.6,0.1-3.1-2.2-4.6-3.4c1.7-0.8,3.3-1.7,5-2.3C848.3,127.4,849.2,127.5,851.2,127.4z"/>
			<path d="M853.3,106.9c5-0.6,10-1.1,15-1.7c0.1,0.5,0.2,1.1,0.3,1.6c-3.2,2.2-6.4,4.4-11,7.6c-1.2-1.2-3.2-3.1-5.2-5
				C852.7,108.6,853,107.8,853.3,106.9z"/>
			<path d="M816.5,66.1c3.8-5.6,9.3-7.5,15.2-8.5c0.3,0.6,0.6,1.3,0.9,1.9c-4.9,3-9.9,6-14.8,9C817.3,67.7,816.9,66.9,816.5,66.1z"
				/>
			<path d="M785.1,53.1c-1.5,6.7-2.7,11.9-4.2,18.1C776.7,64.4,777.9,58.9,785.1,53.1z"/>
			<path d="M856.4,94.2c-3.9-1.9-7.7-3.8-11.6-5.7C850.2,87.4,855.2,87,856.4,94.2z"/>
			<path d="M818.5,88.9c3,2.2,6,4.4,9,6.7c-0.7,1-1.4,2-2.1,3c-2.9-2.3-5.8-4.5-8.6-6.8C817.4,90.9,817.9,89.9,818.5,88.9z"/>
			<path d="M877.1,87.7c-4.9-0.4-8.6-0.7-13.2-1C871.6,81.5,874.4,81.6,877.1,87.7z"/>
			<path d="M842.5,39.8c-3.1,2.3-6.3,4.6-9.4,6.9c0.3-6.7,3.7-8.9,8.5-8.9C842,38.5,842.2,39.1,842.5,39.8z"/>
		</g>
		<path class="st7" d="M234.6,478.6c3.8-10.8,15.1-14.9,22.3-17.6c13.9-5.1,42.4-9.6,54.9,7.3c9,12.2,5.1,29.4,4.3,33
			c-1.7,7.2-4.7,12.3-8.1,18c-3.9,6.4-6,9.8-9,9.9c-4.9,0.1-9.5-8.3-11.1-14.6c-1.7-6.4-0.8-11.9-1.3-12c-1-0.1-1.5,19-6.9,20.1
			c-5,1-11.9-13.6-13.3-12.9c-1.2,0.6,4.6,9.9,2.1,12.4c-3,3.1-18.6-3.7-27.4-16.3C238.6,502.6,230.3,490.8,234.6,478.6z"/>
		<g>
			<g>
				<path d="M250.9,471.7c-5.4,5.5-4.2,14.1-4,21.1c0.1,3.2,5.1,3.2,5,0c-0.1-3.4-0.3-6.9-0.1-10.3c0.2-2.7,0.8-5.4,2.7-7.3
					C256.7,472.9,253.2,469.4,250.9,471.7L250.9,471.7z"/>
			</g>
		</g>
		<g>
			<g>
				<path d="M258,474.9c-1.8,5.1-3,10.4-3.7,15.8c-0.7,5.1-1.6,11,0.7,15.8c0.6,1.2,2.3,1.5,3.4,0.9c1.3-0.7,1.5-2.2,0.9-3.4
					c-0.9-2-0.7-4.3-0.6-6.4c0.1-2.3,0.3-4.7,0.7-7c0.7-4.9,1.9-9.6,3.5-14.3c0.4-1.3-0.5-2.7-1.7-3.1
					C259.7,472.8,258.5,473.7,258,474.9L258,474.9z"/>
			</g>
		</g>
		<g>
			<g>
				<path d="M267.1,479.3c-1.4,0.8-2.1,2.2-2.7,3.6c-0.7,1.4-1.2,2.9-1.7,4.4c-0.8,2.8-1.2,5.9-1,8.8c0.1,1.3,1.1,2.6,2.5,2.5
					c1.3-0.1,2.6-1.1,2.5-2.5c-0.1-1.2,0-2.4,0.1-3.7c0-0.1,0.1-1,0.1-0.6c0-0.3,0.1-0.5,0.1-0.8c0.1-0.6,0.3-1.3,0.4-1.9
					c0.2-0.6,0.3-1.2,0.5-1.8c0.2-0.5,0.5-1.3,0.6-1.5c0.1-0.3,0.5-1,0.7-1.5c0.1-0.2,0.3-0.5,0.4-0.7c0.2-0.2,0.2-0.2,0,0
					c0.2-0.2,0.2-0.2,0,0c1.1-0.7,1.6-2.3,0.9-3.4C269.8,479.1,268.2,478.6,267.1,479.3L267.1,479.3z"/>
			</g>
		</g>
	</g>
</g>
</svg>
