<?xml version="1.0" encoding="utf-8"?>
<!-- Generator: Adobe Illustrator 25.2.1, SVG Export Plug-In . SVG Version: 6.00 Build 0)  -->
<svg version="1.1" id="Capa_1" xmlns="http://www.w3.org/2000/svg" xmlns:xlink="http://www.w3.org/1999/xlink" x="0px" y="0px"
	 viewBox="0 0 1200 821.6" style="enable-background:new 0 0 1200 821.6;" xml:space="preserve">
<style type="text/css">
	.st0{fill:#030303;}
	.st1{fill:#5E6A7B;}
	.st2{fill:#208215;}
	.st3{fill:#1D1D1B;}
</style>
<path class="st0" d="M-612,479c1.4-0.8,2.8-1.5,4.2-2.3c-0.7,2.4-1.5,4.8-2.3,7.4C-612.2,482.6-611.8,480.7-612,479z"/>
<g>
	<g>
		<path d="M408.1,375.6h-66.4c0-16.8-2-29.2-6-37.4c-6.6-12.1-19-18.2-37.2-18.2c-16.4,0-27.7,4.7-33.9,14
			c-4.4,6.8-6.6,17.6-6.6,32.4c0,19.8,1.8,34.2,5.3,43.1c6.2,15.8,18.9,23.7,38,23.7c27.6,0,52.3,7.8,74.1,23.5
			c21.8,15.6,32.7,34.6,32.7,56.9v44.2c0,22.3-9.8,41.3-29.3,57.2c-19.5,15.8-43.1,23.7-70.6,23.7h-17.3c-27.5,0-51.1-7.9-70.6-23.8
			c-19.5-15.8-29.3-34.9-29.3-57.2v-23.2h66.4c-0.4,37.1,13.9,55.6,43.2,55.6c16.8,0,28.3-5,34.5-15.1c4-6.5,6-17.6,6-33.4
			c0-39.5-14.1-59.3-42.4-59.3c-28.2,0-53.3-7.8-75.1-23.5c-21.8-15.6-32.7-34.6-32.7-56.9v-49.6c0-22.3,9.8-41.3,29.3-57.2
			c19.5-15.8,43.1-23.7,70.6-23.7h17.3c27.5,0,51.1,7.9,70.6,23.8c19.5,15.8,29.3,34.9,29.3,57.2V375.6z"/>
		<path d="M657.1,455v173.9H592V467.8c0-30.2-14.6-45.2-43.9-45.2c-27,0-40.5,10.2-40.5,30.7l2,175.6h-69.7V277.8l67.7,0.5v110.7
			c9.7-10.1,28.7-15.1,56.9-15.1c26.9,0,49,7.9,66.5,23.8C648.4,413.6,657.1,432.6,657.1,455z"/>
		<path d="M906.9,552.9c0,22.3-9.7,41.3-29.2,57.1c-19.5,15.8-43,23.7-70.4,23.7H790c-27.5,0-50.9-7.9-70.4-23.7
			c-19.5-15.8-29.2-34.9-29.2-57.1v-98.1c0-22.3,9.7-41.3,29.2-57.1c19.5-15.8,42.9-23.7,70.4-23.7h17.3c27.5,0,50.9,7.9,70.4,23.7
			c19.5,15.8,29.2,34.9,29.2,57.1V552.9z M840.5,538.4v-70.8c0-30-14.4-45.1-43.2-45.1c-27,0-40.5,15-40.5,45.1v70.8
			c0,30,14.4,45.1,43.2,45.1C826.9,583.5,840.5,568.5,840.5,538.4z"/>
		<path d="M1159.3,550.9c0,22.4-9.7,41.5-29.1,57.4c-19.4,15.9-42.8,23.8-70.1,23.8h-17.2c-12.3,0-23.4-5-33.1-15.1v110.2l-69.1,1.1
			V376.6h64.4v16.2c8.9-14.4,27-21.6,54.5-21.6c27.5,0,50.9,7.9,70.4,23.8c19.5,15.9,29.2,35,29.2,57.4V550.9z M1092.8,538.1v-71.3
			c0-30.2-13.3-45.4-39.9-45.4c-21.8,0-35.3,7.7-40.5,23.2c-1.7,5-2.6,19.6-2.6,43.7v22.7c0,26.6,0.4,42.1,1.3,46.4
			c4.8,17.3,17.8,25.9,38.9,25.9C1078.6,583.5,1092.8,568.4,1092.8,538.1z"/>
	</g>
	<path class="st1" d="M439.8,169.3c0-1.5,0-3,0-4.5c10.1,0.9,20.2,1.8,30.3,2.6c0,0.6,0,1.2-0.1,1.9
		C459.9,169.3,449.9,169.3,439.8,169.3z"/>
	<g>
		<g>
			<path class="st2" d="M651.7,654.6c-34.1,1.8-55.2,3.4-75.5,5.2c-56.5,5.1-86.9,10.7-150.6,19.9
				c-100.2,14.5-199.4,33.5-297.8,57.3c-24.3,5.9-24.2,5.9-24.7,31.3c0,2,0.1,4-0.2,6c-1,6.7,1.6,8,7.8,6.1
				c16.8-5.4,33.6-10.7,50.5-15.5c33.1-9.5,193-50,241-59.7c183.3-36.8,362.6-49,417.5-52.3c55.6-3.4,97.5-3.4,97.5-4.3
				C917.2,647.1,787.3,647.4,651.7,654.6z"/>
			<path d="M107.1,727.2c33-9.4,67.3-13.5,100.3-22.7c19.1-5.4,36.2-9.6,54.1-13.7c44.5-7.2,89-15.1,133.6-21.7
				c4.1-0.6,8.1-1.2,12.2-1.8c6.8-1,13.6-1.9,20.4-2.8c51.4-6.8,102.8-12.8,154.4-17.4c25.1-2.2,50.3-3.6,75.4-5.4
				c0-0.4,0-0.7,0-1.1c-17.2,0-34.5,0-51.7,0c-2,0.2-4,0.5-5.9,0.6c-70.9,2.2-141.7,6.5-212.3,13.3c-29.7,2.9-59.4,5.5-88.9,9.4
				c-19.9,2.6-40.2,3.6-59.7,8.7c0,0,0,0,0,0c0,0,0,0,0,0c-31.5,2.8-62.4,9.2-93.5,14.7c-7.8,1.4-8.6-0.2-8.2-7.5
				c4.3-76.1,8.2-152.1,12.2-228.2c4.8-91.4,9.6-182.7,14.1-274.1c0.4-7.2,2.8-8.8,9.4-8.5c12,0.4,23.9,0,35.9,0
				c174,3,261.1,2.5,261.2-1.5c0.2-4-87.2-11.6-262-22.8c-6.6-0.6-13.2-1.4-19.9-1.8c-21.6-1.6-43.1-3.7-64.7-5
				c-9.8-0.6-11.2,1.4-12.5,9.6c-4.6,29.2-9.8,58.3-14.8,87.5c-4.9,25.5-12.4,65.7-21.1,115.3C44.7,523.7,50.4,502.1,45.1,531.4
				c-8.4,46.8-15.2,93.9-23.3,140.7c-1.3,7.2,0.8,12.7,8.5,14.4c24.8,5.7,45.3,18.8,63.2,36.4C97.2,726.6,101.4,728.8,107.1,727.2z
				 M80.1,677.6C80.1,677.6,80.1,677.6,80.1,677.6L80.1,677.6L80.1,677.6c0.9-2.6,1.2-5.3,1.2-7.9c0-0.3,0.1-0.6,0.1-0.9
				c2.2-34.3,4.3-68.7,6.4-103.1c1.5-23.6,2.9-47.2,4.3-70.9c-0.6-0.1-1.2-0.1-1.8-0.2c-5.5,29.9-10.9,59.8-16.4,89.7c0,0,0,0,0,0
				c-5.1,25.1-10,50.2-15.5,75.2c-0.8,3.7,1.8,10.6-5.6,10.3c-9-0.5-7.4-7.3-6.6-13.3c6.8-47.1,13.6-94.2,20.4-141.3
				c13.9-97.2,27.8-194.3,41.7-291.5c3.3-23,6.7-46.1,9.9-69.2c0.8-5.8,2.7-8.6,9.3-8.1c8,0.6,4.8,6.1,4.6,9.4
				c-4.4,76.4-9,152.9-13.6,229.3c-4.4,74.8-8.8,149.6-13.2,224.4c-1.8,29.8-3.7,59.6-6.4,89.8C93.8,690.9,79.5,690.9,80.1,677.6z"
				/>
		</g>
	</g>
	<path class="st2" d="M319.4,44.6c56.8,0,102.8,76.2,102.8,170.2h19.3c0-108.7-54.7-196.8-122.1-196.8s-122.1,88.1-122.1,196.8h19.3
		C216.7,120.8,262.7,44.6,319.4,44.6z"/>
	<polygon class="st3" points="220,235 212.3,227.4 220,219.6 215.2,214.8 207.4,222.6 199.7,215 194.9,220 202.6,227.6 194.8,235.4 
		199.7,240.2 207.4,232.4 215.2,240 	"/>
	<polygon class="st3" points="445.7,235 438,227.4 445.7,219.6 440.8,214.8 433.1,222.6 425.4,215 420.5,220 428.2,227.6 
		420.5,235.4 425.4,240.2 433.1,232.4 440.8,240 	"/>
	<g>
		<path class="st2" d="M700.2,338.2v14.6h-94.5V250.9l94.5-0.2v14.6h-62.1v27.5h62.1v14.6h-62.1v30.7H700.2z"/>
		<path class="st2" d="M815.9,279.2h-31.2c0-4.9-0.9-8.5-2.8-10.9c-3.1-3.5-8.9-5.3-17.5-5.3c-7.7,0-13,1.4-15.9,4.1
			c-2.1,2-3.1,5.1-3.1,9.4c0,5.7,0.8,9.9,2.5,12.5c2.9,4.6,8.9,6.9,17.9,6.9c12.9,0,24.5,2.3,34.8,6.8c10.2,4.5,15.4,10,15.4,16.5
			v12.8c0,6.5-4.6,12-13.8,16.6c-9.2,4.6-20.2,6.9-33.2,6.9h-8.1c-12.9,0-24-2.3-33.2-6.9c-9.2-4.6-13.8-10.1-13.8-16.6v-6.7h31.2
			c-0.2,10.8,6.5,16.2,20.3,16.2c7.9,0,13.3-1.5,16.2-4.4c1.9-1.9,2.8-5.1,2.8-9.7c0-11.5-6.6-17.2-19.9-17.2
			c-13.3,0-25-2.3-35.2-6.8c-10.2-4.5-15.4-10-15.4-16.5v-14.4c0-6.5,4.6-12,13.8-16.6c9.2-4.6,20.2-6.9,33.2-6.9h8.1
			c12.9,0,24,2.3,33.2,6.9c9.2,4.6,13.8,10.1,13.8,16.6V279.2z"/>
		<path class="st2" d="M931.9,299.4c0,6.5-3.6,11.8-10.8,15.8c-7.2,4.1-17.2,6.1-30.1,6.1h-28.7v31.4h-32.4V249.1
			c36.4-0.1,54.8-0.2,55.2-0.2c12.9,0,23.9,2.3,33.1,6.9c9.1,4.6,13.7,10.1,13.7,16.6V299.4z M900.7,295.2V276
			c0-5.1-1.2-8.5-3.7-10.2c-3.3-2.2-10.1-3.2-20.4-3.1h-14.2v45.5c12.5,0.1,18.9,0.2,19.3,0.2c7.7,0,13-1.3,15.9-3.9
			C899.7,302.4,900.7,299.4,900.7,295.2z"/>
		<path class="st2" d="M1041.4,338.2v14.6h-94.5V250.9l94.5-0.2v14.6h-62.1v27.5h62.1v14.6h-62.1v30.7H1041.4z"/>
	</g>
</g>
</svg>
